<?xml version="1.0" encoding="UTF-8"?>
<svg width="220px" height="44px" viewBox="0 0 220 44" version="1.1" xmlns="http://www.w3.org/2000/svg" xmlns:xlink="http://www.w3.org/1999/xlink">
    <title>aweber</title>
    <defs>
        <polygon id="path-1" points="0 0 15.4633621 0 15.4633621 24.2758621 0 24.2758621"></polygon>
        <polygon id="path-3" points="0 0 11.7241379 0 11.7241379 43.9283406 0 43.9283406"></polygon>
        <polygon id="path-5" points="0 0 29.3793103 0 29.3793103 43.9283406 0 43.9283406"></polygon>
    </defs>
    <g id="Page-1" stroke="none" stroke-width="1" fill="none" fill-rule="evenodd">
        <g id="skillsets-collapsed" transform="translate(-980.000000, -7657.000000)">
            <g id="Group-57" transform="translate(106.000000, 7272.500000)">
                <g id="Group-56" transform="translate(132.000000, 375.000000)">
                    <g id="aweber" transform="translate(742.000000, 9.500000)">
                        <path d="M74.0474138,32.1190732 L58.0641164,32.1190732 L53.9062501,41.1880388 L47.8372846,41.1880388 L66.3098061,1.505388 L84.1293103,41.1880388 L77.9649785,41.1880388 L74.0474138,32.1190732 Z M71.7516164,26.825431 L66.2133621,14.1298491 L60.4100215,26.825431 L71.7516164,26.825431 Z" id="Shape" fill="#0079C1" fill-rule="nonzero"></path>
                        <polyline id="Path" fill="#0079C1" fill-rule="nonzero" points="83.2009698 3.85183186 92.9229526 28.8076509 103.078664 2.03825434 112.79903 28.8076509 123.123922 3.85183186 129.242457 3.85183186 112.557112 43.5571121 102.957435 17.1050647 92.9466594 43.5818966 77.0856681 3.85183186 83.2009698 3.85183186"></polyline>
                        <path d="M146.860453,30.6923491 L129.982759,30.6923491 C130.127155,32.6293103 130.755927,34.1675647 131.867457,35.3114225 C132.978987,36.4385777 134.407328,37.0037716 136.148168,37.0037716 C137.501616,37.0037716 138.622306,36.6826509 139.509159,36.0360992 C140.380927,35.3938578 141.369612,34.1998923 142.482759,32.4574353 L147.07597,35.021013 C146.368534,36.2306034 145.616379,37.2645474 144.83028,38.1282328 C144.037177,38.9897629 143.19181,39.6998923 142.289871,40.2575432 C141.387392,40.8130388 140.411099,41.2209052 139.362608,41.4784483 C138.315733,41.7359914 137.181034,41.8626077 135.955819,41.8626077 C132.440733,41.8626077 129.619612,40.7354526 127.491379,38.478987 C125.364224,36.2052801 124.300647,33.1923491 124.300647,29.4369612 C124.300647,25.7139008 125.331358,22.6966594 127.394397,20.393319 C129.475216,18.1179957 132.231142,16.9816811 135.663254,16.9816811 C139.129849,16.9816811 141.870151,18.0872846 143.884159,20.296875 C145.884159,22.487069 146.884159,25.5253233 146.884159,29.4137931 L146.860453,30.6923491 Z M141.274246,26.242457 C140.515625,23.3426724 138.685345,21.890625 135.786099,21.890625 C135.125,21.890625 134.503772,21.9913793 133.922953,22.1945043 C133.344289,22.3943966 132.813578,22.6853448 132.340517,23.0641164 C131.863685,23.442888 131.457974,23.8987069 131.119073,24.4315732 C130.780711,24.9617457 130.521013,25.567888 130.344289,26.242457 L141.274246,26.242457" id="Shape" fill="#0079C1" fill-rule="nonzero"></path>
                        <path d="M156.408405,0.345905241 L156.408405,20.3679957 C158.58459,18.1104526 161.052263,16.9816811 163.805496,16.9816811 C166.98222,16.9816811 169.627694,18.1659483 171.738147,20.5371767 C173.851293,22.8911639 174.907328,25.825431 174.907328,29.3405172 C174.907328,32.9671337 173.844289,35.9633621 171.716056,38.3345905 C169.601293,40.6880388 166.935345,41.8647629 163.710129,41.8647629 C160.985991,41.8647629 158.550108,40.8146552 156.408405,38.7209052 L156.408405,41.1880388 L150.968211,41.1880388 L150.968211,0.345905241 L156.408405,0.345905241 Z M169.346444,29.580819 C169.346444,27.3238146 168.73222,25.487069 167.507543,24.0657328 C166.265086,22.6179957 164.710129,21.890625 162.839978,21.890625 C160.841595,21.890625 159.213901,22.5932112 157.955819,23.9946121 C156.71444,25.3809268 156.095366,27.1853448 156.095366,29.4116379 C156.095366,31.6998923 156.706358,33.5307112 157.933728,34.8997846 C159.158405,36.3017241 160.769397,37.0037716 162.769397,37.0037716 C164.653556,37.0037716 166.217672,36.3017241 167.459052,34.8997846 C168.717134,33.4822199 169.346444,31.7079742 169.346444,29.580819" id="Shape" fill="#0079C1" fill-rule="nonzero"></path>
                        <path d="M200.042565,30.6923491 L183.164332,30.6923491 C183.308728,32.6293103 183.939116,34.1675647 185.049569,35.3114225 C186.162716,36.4385777 187.588901,37.0037716 189.330819,37.0037716 C190.685345,37.0037716 191.807112,36.6826509 192.692349,36.0360992 C193.561422,35.3938578 194.551724,34.1998923 195.665948,32.4574353 L200.259159,35.021013 C199.550108,36.2306034 198.800108,37.2645474 198.014009,38.1282328 C197.220905,38.9897629 196.375,39.6998923 195.471983,40.2575432 C194.56681,40.8130388 193.594289,41.2209052 192.546336,41.4784483 C191.497845,41.7359914 190.36153,41.8626077 189.136315,41.8626077 C185.622306,41.8626077 182.802802,40.7354526 180.674569,38.478987 C178.54472,36.2052801 177.481142,33.1923491 177.481142,29.4369612 C177.481142,25.7139008 178.514547,22.6966594 180.578125,20.393319 C182.656789,18.1179957 185.413793,16.9816811 188.846983,16.9816811 C192.311961,16.9816811 195.052263,18.0872846 197.067349,20.296875 C199.064655,22.487069 200.067349,25.5253233 200.067349,29.4137931 L200.042565,30.6923491 Z M194.456358,26.242457 C193.697737,23.3426724 191.870151,21.890625 188.968211,21.890625 C188.306034,21.890625 187.686961,21.9913793 187.106142,22.1945043 C186.525323,22.3943966 185.997306,22.6853448 185.522629,23.0641164 C185.045259,23.442888 184.641164,23.8987069 184.300647,24.4315732 C183.962823,24.9617457 183.704741,25.567888 183.528017,26.242457 L194.456358,26.242457" id="Shape" fill="#0079C1" fill-rule="nonzero"></path>
                        <g id="Clipped" transform="translate(203.862069, 16.965517)">
                            <mask id="mask-2" fill="white">
                                <use xlink:href="#path-1"></use>
                            </mask>
                            <g id="Path"></g>
                            <path d="M0.0619612414,0.669719862 L5.50215517,0.669719862 L5.50215517,2.77532331 C6.50053876,1.72575434 7.38900869,1.00862069 8.16163793,0.62176731 C8.95150869,0.217672414 9.88685352,0.0161638621 10.9655172,0.0161638621 C12.4030172,0.0161638621 13.9008621,0.485452552 15.4633621,1.42025862 L12.9735992,6.40032331 C11.9434268,5.66002152 10.9353448,5.28663793 9.95150869,5.28663793 C6.98599145,5.28663793 5.50215517,7.5290949 5.50215517,12.0113146 L5.50215517,24.2225215 L0.0619612414,24.2225215 L0.0619612414,0.669719862" id="Path" fill="#0079C1" fill-rule="nonzero" mask="url(#mask-2)"></path>
                        </g>
                        <g id="Clipped">
                            <mask id="mask-4" fill="white">
                                <use xlink:href="#path-3"></use>
                            </mask>
                            <g id="Path"></g>
                            <path d="M10.9725215,0 L10.4568966,0 C4.6826509,0 0,4.6826509 0,10.4568966 L0,33.4692888 C0,39.2456897 4.6826509,43.9283406 10.4568966,43.9283406 L11.6223061,43.9283406 C8.83028014,37.174569 7.38577586,29.8809268 7.38577586,21.0619612 C7.38577586,13.012931 8.60344828,6.24191807 10.9725215,0" id="Path" fill="#0079C1" fill-rule="nonzero" mask="url(#mask-4)"></path>
                        </g>
                        <g id="Clipped" transform="translate(14.620690, 0.000000)">
                            <mask id="mask-6" fill="white">
                                <use xlink:href="#path-5"></use>
                            </mask>
                            <g id="Path"></g>
                            <path d="M18.8469828,0 L4.22252152,0 C1.51077586,6.12068966 0.0210129655,12.8318966 0.0210129655,21.0619612 C0.0210129655,30.1077586 1.81519393,37.3615302 4.97036634,43.9283406 L18.8469828,43.9283406 C24.625,43.9283406 29.3071121,39.2456897 29.3071121,33.4692888 L29.3071121,10.4568966 C29.3071121,4.6826509 24.625,0 18.8469828,0 M11.7699353,40.9838363 C11.4084052,41.2650862 11.0048491,41.3841594 10.5991379,41.3841594 C10.1142241,41.3841594 9.6298491,41.1417026 9.2262931,40.6185345 C5.10721986,35.005388 2.92456897,29.6729526 2.92456897,22.0393319 C2.92456897,14.4450432 5.10721986,9.153556 9.26831903,3.58081903 C9.67187503,3.05387931 10.1950432,2.81142248 10.6815732,2.81142248 C11.083513,2.81142248 11.4471983,2.9326509 11.7699353,3.17456897 C12.2974138,3.49946124 12.6605604,3.98437503 12.6605604,4.54795255 C12.6605604,4.83243531 12.5371767,5.15517241 12.2974138,5.47844828 C8.66056041,10.3243535 6.52047421,15.0915949 6.52047421,22.0393319 C6.52047421,29.0657328 8.70096979,33.9116379 12.2548491,38.6804957 C12.4967673,39.0441811 12.6179957,39.3663793 12.6179957,39.6476294 C12.6179957,40.2149785 12.2548491,40.6610992 11.7699353,40.9838363 M18.7893319,33.2171337 C18.958513,33.4709052 19.0425647,33.6961207 19.0425647,33.8922414 C19.0425647,34.2860992 18.7893319,34.5959052 18.450431,34.8211207 C18.1966594,35.0188578 17.9159483,35.1012931 17.6346983,35.1012931 C17.2984914,35.1012931 16.9579742,34.9348061 16.6772629,34.5673491 C13.8081897,30.6578663 12.2871767,26.9423491 12.2871767,21.6255388 C12.2871767,16.3356681 13.8081897,12.6492457 16.705819,8.76885779 C16.987069,8.40140083 17.3523708,8.23221986 17.6912716,8.23221986 C17.9735992,8.23221986 18.2257543,8.31681034 18.450431,8.48383628 C18.8157328,8.7112069 19.0695043,9.04741379 19.0695043,9.44127159 C19.0695043,9.63793103 18.9849138,9.8647629 18.8157328,10.0894397 C16.2828663,13.4665949 14.7931034,16.7877156 14.7931034,21.6255388 C14.7931034,26.5199353 16.3141164,29.896013 18.7893319,33.2171337" id="Shape" fill="#0079C1" fill-rule="nonzero" mask="url(#mask-6)"></path>
                        </g>
                    </g>
                </g>
            </g>
        </g>
    </g>
</svg>