<?xml version="1.0" encoding="UTF-8"?>
<svg width="47px" height="45px" viewBox="0 0 47 45" version="1.1" xmlns="http://www.w3.org/2000/svg" xmlns:xlink="http://www.w3.org/1999/xlink">
    <title>Fox_News_Channel_logo</title>
    <defs>
        <rect id="path-1" x="0" y="0" width="47" height="45"></rect>
    </defs>
    <g id="home" stroke="none" stroke-width="1" fill="none" fill-rule="evenodd">
        <g id="Fox_News_Channel_logo">
            <mask id="mask-2" fill="white">
                <use xlink:href="#path-1"></use>
            </mask>
            <g id="Mask"></g>
            <g mask="url(#mask-2)" fill-rule="nonzero">
                <g transform="translate(3.000000, 2.000000)">
                    <polygon id="bg-top" fill="#2B2B2B" points="0 0 41.2602273 0 41.2602273 33.4658864 0 33.4658864"></polygon>
                    <polygon id="bg-bottom" fill="#2B2B2B" points="0 33.9235909 41.2602273 33.9235909 41.2602273 41.2602273 0 41.2602273"></polygon>
                    <path d="M41.2602273,23.9543182 L41.1833864,23.9543182 C40.7256818,22.8317727 40.2078409,21.7359545 39.6298636,20.6702045 L40.1376818,20.6702045 C40.5385909,21.4386136 40.9127727,22.2170455 41.2602273,23.0088409 L41.2602273,23.9543182 Z M0,4.58372727 C2.03127273,3.90218182 4.11934091,3.42109091 6.24415909,3.14379545 L6.84886364,0 L11.7499773,0 L10.6508182,2.85313636 C11.9704773,2.84979545 13.2867955,2.92663636 14.5964318,3.08365909 L16.1232273,0 L21.5087727,0 L18.9429545,3.8955 C22.3473409,4.7775 25.5880227,6.19404545 28.5413864,8.09502273 C29.1293864,8.47254545 29.7006818,8.87011364 30.2552727,9.28104545 L29.4768409,9.28104545 C26.2127727,6.9825 22.5544773,5.292 18.6823636,4.29975 L15.54525,9.16745455 L13.2934773,9.16745455 L13.2934773,12.4816364 L7.73754545,21.5455227 L5.96018182,21.5455227 L5.96018182,24.5757273 L0.267272727,33.4658864 L0.0868636364,33.4658864 L14.3892955,3.51129545 C13.0963636,3.36095455 11.7934091,3.29079545 10.4937955,3.30081818 L0.0400909091,33.4658864 L0,33.4658864 M0,32.9079545 L6.14393182,3.61820455 C4.06254545,3.90886364 2.01456818,4.40331818 0.0267272727,5.08820455 L0,5.08820455" id="kliegs" fill="#FFFFFF"></path>
                    <path d="M16.9617955,16.8147955 L19.9752955,16.8147955 L19.9752955,13.9984091 L16.9617955,13.9984091 L16.9617955,12.6553636 L20.6301136,12.6553636 L20.4296591,9.83229545 L13.8948409,9.83229545 L13.8948409,20.1690682 L16.9617955,20.1690682 L16.9617955,16.8147955 Z M29.7107045,20.139 L33.0081818,20.139 L34.5115909,17.60325 L36.05175,20.1423409 L39.4260682,20.1423409 L36.1720227,14.7868636 L39.102,9.849 L35.7610909,9.849 L34.5015682,11.9938636 L33.1952727,9.84231818 L29.7975682,9.84231818 L32.8144091,14.81025 L29.7107045,20.139 Z M25.8753409,20.2525909 C28.7919545,20.2926818 31.1907273,17.9674091 31.2408409,15.0507955 C31.1172273,12.0840682 28.6148864,9.77884091 25.6448182,9.89911364 C22.8484773,10.0160455 20.6100682,12.2544545 20.4931364,15.0507955 C20.5399091,17.97075 22.9453636,20.2993636 25.8653182,20.2525909 L25.8753409,20.2525909 Z M24.9265227,12.7823182 C24.9298636,12.2711591 25.3341136,11.8568864 25.8419318,11.8335 C26.3664545,11.8435227 26.79075,12.2611364 26.8107955,12.7823182 L26.8107955,17.1689318 C26.7740455,17.6901136 26.3230227,18.081 25.8018409,18.04425 C25.3307727,18.0108409 24.9599318,17.6366591 24.9265227,17.1689318 L24.9265227,12.7823182 L24.9265227,12.7823182 Z M17.6600455,27.8865682 L20.7804545,27.8865682 L20.7804545,25.8185455 L17.6600455,25.8185455 L17.6600455,24.4120227 L21.462,24.4120227 L21.462,22.1736136 L15.25125,22.1736136 L15.25125,31.8388636 L21.5087727,31.8388636 L21.5087727,29.5135909 L17.6600455,29.5135909 L17.6600455,27.8865682 Z M31.0905,22.1736136 L29.8944545,27.7061591 L28.7251364,22.1736136 L26.6604545,22.1736136 L25.5479318,27.7629545 L24.3886364,22.1736136 L21.9263864,22.1736136 L24.1614545,31.8388636 L26.4065455,31.8388636 L27.5057045,26.2996364 L28.6382727,31.8388636 L30.8365909,31.8388636 L33.0816818,22.1736136 L31.0905,22.1736136 Z M39.2423182,26.5401818 C38.6008636,25.9488409 37.8658636,25.7918182 37.0406591,25.5579545 C36.0651136,25.284 35.5272273,25.2539318 35.5272273,24.6859773 C35.5673182,24.2650227 35.9415,23.9576591 36.3624545,23.99775 C36.3657955,23.99775 36.3691364,23.99775 36.3691364,23.99775 C36.9905455,23.9476364 37.5585,24.3585682 37.7021591,24.9666136 L39.8102727,24.2650227 C39.4193864,22.7950227 38.0562955,21.7960909 36.5361818,21.8629091 C34.3345227,21.8629091 32.9881364,23.2159773 32.9881364,25.0367727 C32.9881364,26.6103409 33.9035455,27.3854318 35.7377045,27.9333409 C36.8335227,28.2640909 37.4148409,28.2373636 37.4148409,28.9422955 C37.4148409,29.3131364 37.0707273,29.6037955 36.4994318,29.6037955 C35.7443864,29.6906591 35.0561591,29.1728182 34.9258636,28.4244545 L32.6139545,28.9322727 C33.0081818,30.7664318 34.3746136,31.8555682 36.4693636,31.8555682 C37.5050455,31.8822955 38.5039773,31.4713636 39.2189318,30.723 C39.7467955,30.1416818 40.0374545,29.3832955 40.0307727,28.5948409 C40.0742045,27.8264318 39.7835455,27.0780682 39.2389773,26.5368409 L39.2423182,26.5368409 L39.2423182,26.5401818 Z M12.2511136,27.0246136 L9.37125,22.2170455 L6.57825,22.2170455 L6.57825,31.8455455 L9.03047727,31.8455455 L9.03047727,26.2194545 L12.3179318,31.8321818 L14.6432045,31.8321818 L14.6432045,22.2036818 L12.2577955,22.2036818 L12.2511136,27.0246136 Z" id="fox-news" fill="#FFFFFF"></path>
                    <path d="M3.96565909,37.2411136 C4.22959091,37.1943409 4.49018182,37.3446818 4.58372727,37.59525 L5.96018182,37.59525 C5.87331818,36.9437727 5.13497727,36.5562273 3.98570455,36.5562273 C2.66938636,36.5729318 1.83415909,37.1375455 1.83415909,38.0562955 C1.83415909,38.8915227 2.65602273,39.43275 3.90218182,39.43275 C5.05145455,39.43275 5.80315909,39.0351818 5.94347727,38.3569773 L4.58706818,38.3569773 C4.51022727,38.6175682 4.29306818,38.7478636 3.94227273,38.7478636 C3.48456818,38.7478636 3.23734091,38.5039773 3.23734091,38.0195455 C3.23734091,37.5351136 3.49459091,37.2411136 3.96565909,37.2411136 Z M17.3526818,38.8180227 L17.3526818,37.8057273 C17.4061364,37.4916818 17.3025682,37.1709545 17.0787273,36.9471136 C16.6176818,36.6698182 16.0797955,36.5462045 15.5419091,36.5996591 C14.3558864,36.5996591 13.70775,36.8869773 13.5741136,37.5150682 L14.8336364,37.5150682 C14.8870909,37.3179545 15.1176136,37.2110455 15.5118409,37.2110455 C15.9060682,37.2110455 16.0530682,37.2945682 16.0530682,37.44825 L16.0530682,37.5117273 C16.0530682,37.7188636 15.5352273,37.6754318 14.5663636,37.8224318 C13.8280227,37.9326818 13.4571818,38.2066364 13.4571818,38.6509773 C13.4571818,39.0953182 13.9416136,39.4227273 14.7634773,39.4227273 C15.2312045,39.4360909 15.6955909,39.3091364 16.0931591,39.0619091 C16.1065227,39.1554545 16.1299091,39.249 16.1633182,39.3358636 L17.5397727,39.3358636 L17.5397727,39.2356364 C17.4195,39.1888636 17.3560227,39.0485455 17.3560227,38.808 L17.3526818,38.8180227 Z M16.0463864,38.3870455 C16.0463864,38.6710227 15.7156364,38.84475 15.2545909,38.84475 C14.9472273,38.84475 14.7501136,38.7111136 14.7501136,38.5273636 C14.7501136,38.3436136 14.8937727,38.2834773 15.2078182,38.2300227 C15.4917955,38.2032955 15.7724318,38.1531818 16.0463864,38.0796818 L16.0463864,38.3870455 Z M22.2170455,36.603 C21.7526591,36.5629091 21.2949545,36.7199318 20.9508409,37.0339773 L20.9508409,36.6765 L19.6211591,36.6765 L19.6211591,39.3492273 L20.9976136,39.3492273 L20.9976136,37.9126364 C20.9976136,37.4549318 21.1947273,37.2678409 21.6891818,37.2678409 C22.1836364,37.2678409 22.2638182,37.5050455 22.2638182,37.9961591 L22.2638182,39.3392045 L23.6402727,39.3392045 L23.6402727,37.5919091 C23.6235682,36.9170455 23.2460455,36.603 22.23375,36.603 L22.2170455,36.603 Z M10.3234091,36.63975 C9.85902273,36.6063409 9.39797727,36.7566818 9.0405,37.0573636 L9.0405,35.7610909 L7.66404545,35.7610909 L7.66404545,39.3826364 L9.0405,39.3826364 L9.0405,37.9560682 C9.0405,37.4983636 9.23761364,37.3112727 9.73206818,37.3112727 C10.2265227,37.3112727 10.3067045,37.5484773 10.3067045,38.0395909 L10.3067045,39.3826364 L11.6831591,39.3826364 L11.6831591,37.5484773 C11.6831591,36.9537955 11.2120909,36.63975 10.3367727,36.63975 L10.3234091,36.63975 Z M28.6616591,36.603 C28.1972727,36.5629091 27.7395682,36.7199318 27.3954545,37.0339773 L27.3954545,36.6765 L26.0891591,36.6765 L26.0891591,39.3492273 L27.4656136,39.3492273 L27.4656136,37.9126364 C27.4656136,37.4549318 27.6627273,37.2678409 28.1571818,37.2678409 C28.6516364,37.2678409 28.7318182,37.5050455 28.7318182,37.9961591 L28.7318182,39.3392045 L30.1082727,39.3392045 L30.1082727,37.5919091 C30.0915682,36.9170455 29.7107045,36.603 28.6950682,36.603 L28.6616591,36.603 Z M34.0071136,36.5762727 C32.7342273,36.5762727 31.9090227,37.1208409 31.9090227,38.0162045 C31.9090227,38.9115682 32.7509318,39.4294091 34.0405227,39.4294091 C35.1096136,39.4294091 35.8746818,39.0886364 36.1052045,38.514 L34.7888864,38.514 C34.692,38.7077727 34.4581364,38.808 34.0872955,38.808 C33.6028636,38.808 33.3389318,38.6075455 33.3389318,38.2300227 L36.162,38.2300227 C36.1653409,38.1765682 36.1653409,38.1264545 36.162,38.073 C36.1720227,37.1375455 35.3535,36.5796136 34.0405227,36.5796136 L34.0071136,36.5762727 Z M33.2687727,37.7155227 C33.3222273,37.3580455 33.6095455,37.1642727 34.0472045,37.1642727 C34.4848636,37.1642727 34.8189545,37.3647273 34.8256364,37.7155227 L33.2687727,37.7155227 Z M38.0496136,35.75775 L38.0496136,39.3792955 L39.4260682,39.3792955 L39.4260682,35.75775 L38.0496136,35.75775 Z" id="channel" fill="#FFFFFF"></path>
                </g>
            </g>
        </g>
    </g>
</svg>