<?xml version="1.0" encoding="UTF-8"?>
<svg width="51px" height="64px" viewBox="0 0 51 64" version="1.1" xmlns="http://www.w3.org/2000/svg" xmlns:xlink="http://www.w3.org/1999/xlink">
    <title>google_ads</title>
    <g id="Page-1" stroke="none" stroke-width="1" fill="none" fill-rule="evenodd">
        <g id="skillsets-collapsed" transform="translate(-238.000000, -7647.000000)" fill-rule="nonzero">
            <g id="Group-57" transform="translate(106.000000, 7272.500000)">
                <g id="google_ads" transform="translate(132.000000, 375.000000)">
                    <path d="M17.2897764,5.75654952 C17.7728435,4.4884984 18.4370607,3.32108626 19.4233227,2.37507987 C23.3683706,-1.46932907 29.8897764,-0.503194888 32.5667732,4.32747604 C34.5795527,7.99073482 36.713099,11.5734824 38.786262,15.1964856 C42.2482428,21.2146965 45.7504792,27.2329073 49.1722045,33.271246 C52.0504792,38.3233227 48.9306709,44.7038339 43.214377,45.5693291 C39.7121406,46.0926518 36.4313099,44.4824281 34.6198083,41.342492 C31.5805112,36.0488818 28.5210863,30.7552716 25.4817891,25.4817891 C25.4214058,25.3610224 25.3408946,25.2603834 25.2603834,25.1597444 C24.9383387,24.8980831 24.7974441,24.515655 24.5961661,24.1734824 C23.2476038,21.7984026 21.8587859,19.4434505 20.5102236,17.0884984 C19.6447284,15.5587859 18.7389776,14.0492013 17.8734824,12.5194888 C17.0884984,11.1507987 16.7261981,9.66134185 16.7664537,8.0913738 C16.8268371,7.28626198 16.927476,6.48115016 17.2897764,5.75654952" id="Path" fill="#3C8BD9"></path>
                    <path d="M17.2897764,5.75654952 C17.1086262,6.48115016 16.9476038,7.2057508 16.9073482,7.97060703 C16.8469649,9.66134185 17.2696486,11.2313099 18.115016,12.700639 C20.3290735,16.5047923 22.543131,20.3290735 24.7370607,24.1533546 C24.9383387,24.4955272 25.099361,24.8376997 25.300639,25.1597444 C24.0929712,27.2530351 22.8853035,29.3261981 21.657508,31.4194888 C19.9667732,34.3380192 18.2760383,37.2766773 16.5651757,40.1952077 C16.4846645,40.1952077 16.4645367,40.1549521 16.4444089,40.0945687 C16.4242812,39.9335463 16.4846645,39.7926518 16.5249201,39.6316294 C17.3501597,36.6124601 16.6658147,33.9354633 14.5926518,31.6408946 C13.3246006,30.2520767 11.714377,29.4670927 9.86261981,29.2054313 C7.44728435,28.8632588 5.31373802,29.4872204 3.40159744,30.9968051 C3.05942492,31.2584665 2.83801917,31.6408946 2.43546326,31.8421725 C2.35495208,31.8421725 2.31469649,31.8019169 2.29456869,31.7415335 C3.26070288,30.0709265 4.20670927,28.4003195 5.17284345,26.7297125 C9.15814696,19.8057508 13.1434505,12.8817891 17.1488818,5.97795527 C17.1891374,5.89744409 17.2495208,5.8370607 17.2897764,5.75654952" id="Path" fill="#FABC04"></path>
                    <path d="M2.37507987,31.8019169 C2.75750799,31.4597444 3.11980831,31.0974441 3.52236422,30.7753994 C8.41341853,26.9108626 15.7600639,29.7086262 16.8268371,35.827476 C17.0884984,37.2968051 16.9476038,38.7057508 16.5047923,40.1146965 C16.4846645,40.2354633 16.4645367,40.3361022 16.4242812,40.456869 C16.243131,40.7789137 16.0821086,41.1210863 15.8808307,41.443131 C14.0894569,44.4019169 11.4527157,45.871246 7.99073482,45.6498403 C4.02555911,45.3680511 0.905750799,42.3891374 0.362300319,38.4440895 C0.100638978,36.5319489 0.483067093,34.7405751 1.46932907,33.0900958 C1.67060703,32.7277955 1.91214058,32.4057508 2.13354633,32.0434505 C2.2341853,31.9629393 2.19392971,31.8019169 2.37507987,31.8019169" id="Path" fill="#34A852"></path>
                    <path d="M2.37507987,31.8019169 C2.29456869,31.8824281 2.29456869,32.0233227 2.15367412,32.0434505 C2.13354633,31.9025559 2.21405751,31.8220447 2.29456869,31.7214058 L2.37507987,31.8019169" id="Path" fill="#FABC04"></path>
                    <path d="M16.4242812,40.456869 C16.34377,40.3159744 16.4242812,40.2153355 16.5047923,40.1146965 C16.5249201,40.1348243 16.5651757,40.1750799 16.5853035,40.1952077 L16.4242812,40.456869" id="Path" fill="#E1C025"></path>
                    <path d="M4.16645367,52.4127796 C1.89201278,52.4127796 0,54.2444089 0,56.498722 C0,58.7530351 1.89201278,60.5645367 4.16645367,60.5645367 C5.3942492,60.5645367 6.3,60.1619808 7.02460064,59.4172524 C7.76932907,58.672524 7.99073482,57.6460064 7.99073482,56.8207668 C7.99073482,56.5591054 7.97060703,56.3175719 7.93035144,56.1162939 L4.16645367,56.1162939 L4.16645367,57.2233227 L6.84345048,57.2233227 C6.7629393,57.8472843 6.56166134,58.3102236 6.23961661,58.6322684 C5.8571885,59.0146965 5.23322684,59.457508 4.16645367,59.457508 C2.51597444,59.457508 1.22779553,58.1290735 1.22779553,56.498722 C1.22779553,54.8683706 2.51597444,53.5399361 4.16645367,53.5399361 C5.05207668,53.5399361 5.71629393,53.8821086 6.17923323,54.3450479 L6.96421725,53.5600639 C6.3,52.9159744 5.414377,52.4127796 4.16645367,52.4127796 Z M10.9897764,55.3313099 C9.56070288,55.3313099 8.37316294,56.4383387 8.37316294,57.9881789 C8.37316294,59.5178914 9.54057508,60.6450479 10.9897764,60.6450479 C12.4389776,60.6450479 13.6063898,59.5178914 13.6063898,57.9881789 C13.6063898,56.4584665 12.4188498,55.3313099 10.9897764,55.3313099 M10.9897764,59.5984026 C10.2047923,59.5984026 9.52044728,58.9341853 9.52044728,57.9881789 C9.52044728,57.0421725 10.2047923,56.3779553 10.9897764,56.3779553 C11.7747604,56.3779553 12.4591054,57.0220447 12.4591054,57.9881789 C12.4591054,58.9341853 11.7747604,59.5984026 10.9897764,59.5984026 M16.6658147,55.3313099 C15.2166134,55.3313099 14.0492013,56.4383387 14.0492013,57.9881789 C14.0492013,59.5178914 15.2166134,60.6450479 16.6658147,60.6450479 C18.0948882,60.6450479 19.2824281,59.5178914 19.2824281,57.9881789 C19.2824281,56.4584665 18.115016,55.3313099 16.6658147,55.3313099 M16.6658147,59.5984026 C15.8808307,59.5984026 15.1964856,58.9341853 15.1964856,57.9881789 C15.1964856,57.0421725 15.8808307,56.3779553 16.6658147,56.3779553 C17.4507987,56.3779553 18.1351438,57.0220447 18.1351438,57.9881789 C18.1351438,58.9341853 17.4709265,59.5984026 16.6658147,59.5984026 M22.3217252,55.3313099 C21.0134185,55.3313099 19.8258786,56.4785942 19.8258786,57.9680511 C19.8258786,59.4373802 21.0134185,60.5846645 22.3217252,60.5846645 C22.9456869,60.5846645 23.428754,60.3028754 23.6904153,59.9808307 L23.7306709,59.9808307 L23.7306709,60.3632588 C23.7306709,61.3696486 23.2073482,61.913099 22.341853,61.913099 C21.6373802,61.913099 21.2146965,61.4099042 21.0335463,60.9872204 L20.0271565,61.4099042 C20.3089457,62.114377 21.0738019,62.9597444 22.341853,62.9597444 C23.6904153,62.9597444 24.8175719,62.1546326 24.8175719,60.2223642 L24.8175719,55.5124601 L23.7306709,55.5124601 L23.7306709,55.9351438 L23.6904153,55.9351438 C23.428754,55.613099 22.9456869,55.3313099 22.3217252,55.3313099 M22.4223642,59.558147 C21.6373802,59.558147 20.9731629,58.8939297 20.9731629,57.9680511 C20.9731629,57.0421725 21.6373802,56.3578275 22.4223642,56.3578275 C23.2073482,56.3578275 23.8111821,57.0421725 23.8111821,57.9680511 C23.8111821,58.8939297 23.2073482,59.558147 22.4223642,59.558147 M25.6629393,52.7348243 L26.8102236,52.7348243 L26.8102236,60.5041534 L25.6629393,60.5041534 L25.6629393,52.7348243 L25.6629393,52.7348243 Z M29.8897764,55.3313099 C28.5210863,55.3313099 27.3738019,56.3980831 27.3738019,57.9881789 C27.3738019,59.4776358 28.5009585,60.6450479 30.0105431,60.6450479 C31.2383387,60.6450479 31.9428115,59.9003195 32.2246006,59.4776358 L31.3188498,58.8738019 C31.0169329,59.3166134 30.5942492,59.5984026 30.0105431,59.5984026 C29.4067093,59.5984026 28.9840256,59.3367412 28.7223642,58.7932907 L32.284984,57.3239617 L32.1642173,57.0220447 C31.9428115,56.4383387 31.2584665,55.3313099 29.8897764,55.3313099 M28.5210863,57.9076677 C28.4808307,56.8811502 29.3261981,56.3578275 29.9099042,56.3578275 C30.3728435,56.3578275 30.7753994,56.5792332 30.8961661,56.9214058 L28.5210863,57.9076677 Z" id="Shape" fill="#757575"></path>
                    <path d="M34.2977636,60.3833866 L36.9546326,53.3185304 L37.9811502,53.3185304 L40.6380192,60.3833866 L39.6316294,60.3833866 L38.9472843,58.471246 L35.9884984,58.471246 L35.3041534,60.3833866 L34.2977636,60.3833866 Z M36.2904153,57.6258786 L38.6453674,57.6258786 L37.4980831,54.4456869 L37.4578275,54.4456869 L36.2904153,57.6258786 Z" id="Shape" fill="#757575"></path>
                    <path d="M41.5638978,59.7996805 C41.1210863,59.2964856 40.8996805,58.6926518 40.8996805,57.9680511 C40.8996805,57.2635783 41.1210863,56.6597444 41.5638978,56.1364217 C42.0268371,55.6332268 42.5501597,55.3916933 43.1942492,55.3916933 C43.5565495,55.3916933 43.8785942,55.4722045 44.1603834,55.613099 C44.4623003,55.7741214 44.6837061,55.9552716 44.8447284,56.2169329 L44.884984,56.2169329 L44.8447284,55.5527157 L44.8447284,53.3185304 L45.7504792,53.3185304 L45.7504792,60.3833866 L44.884984,60.3833866 L44.884984,59.7191693 L44.8447284,59.7191693 C44.6837061,59.9607029 44.4623003,60.1619808 44.1603834,60.3230032 C43.8584665,60.4840256 43.5364217,60.5444089 43.1942492,60.5444089 C42.5501597,60.5444089 42.0067093,60.3028754 41.5638978,59.7996805 M44.4220447,59.2361022 C44.7239617,58.9140575 44.8648562,58.4913738 44.8648562,57.9680511 C44.8648562,57.4648562 44.7239617,57.0421725 44.4220447,56.7201278 C44.1402556,56.3980831 43.7779553,56.2370607 43.3351438,56.2370607 C42.8923323,56.2370607 42.5300319,56.3980831 42.2482428,56.7201278 C41.9463259,57.0421725 41.8054313,57.4648562 41.8054313,57.9680511 C41.8054313,58.471246 41.9463259,58.8939297 42.2482428,59.2159744 C42.5501597,59.5380192 42.9124601,59.6990415 43.3351438,59.6990415 C43.7779553,59.7191693 44.1402556,59.558147 44.4220447,59.2361022" id="Shape" fill="#757575"></path>
                    <path d="M49.9370607,60.1015974 C49.5747604,60.3833866 49.1118211,60.5444089 48.5482428,60.5444089 C48.0651757,60.5444089 47.642492,60.4236422 47.2600639,60.1619808 C46.8977636,59.9003195 46.6361022,59.5782748 46.4750799,59.1555911 L47.2801917,58.8134185 C47.4009585,59.0952077 47.5619808,59.3367412 47.8035144,59.4977636 C48.0249201,59.6587859 48.2865815,59.7392971 48.5482428,59.7392971 C48.8300319,59.7392971 49.0715655,59.6789137 49.2728435,59.558147 C49.4741214,59.4373802 49.5546326,59.2763578 49.5546326,59.1153355 C49.5546326,58.8134185 49.313099,58.571885 48.8501597,58.4309904 L48.0249201,58.2297125 C47.0789137,57.9881789 46.6159744,57.5453674 46.6159744,56.8610224 C46.6159744,56.4182109 46.7971246,56.0760383 47.1594249,55.7942492 C47.5217252,55.5325879 47.9846645,55.3916933 48.528115,55.3916933 C48.9507987,55.3916933 49.3332268,55.4923323 49.6955272,55.6936102 C50.0376997,55.8948882 50.2792332,56.1766773 50.4201278,56.5188498 L49.615016,56.8610224 C49.514377,56.6597444 49.3734824,56.498722 49.1722045,56.3779553 C48.9709265,56.2571885 48.729393,56.1968051 48.4677316,56.1968051 C48.2261981,56.1968051 48.0249201,56.2571885 47.8236422,56.3779553 C47.642492,56.498722 47.541853,56.6396166 47.541853,56.8207668 C47.541853,57.1025559 47.8035144,57.3038339 48.3268371,57.4044728 L49.0514377,57.585623 C50.0175719,57.8271565 50.4805112,58.3102236 50.4805112,59.0348243 C50.500639,59.457508 50.299361,59.8198083 49.9370607,60.1015974" id="Path" fill="#757575"></path>
                </g>
            </g>
        </g>
    </g>
</svg>