<?xml version="1.0" encoding="UTF-8"?>
<svg width="322px" height="49px" viewBox="0 0 322 49" version="1.1" xmlns="http://www.w3.org/2000/svg" xmlns:xlink="http://www.w3.org/1999/xlink">
    <title>google_analytics</title>
    <g id="Page-1" stroke="none" stroke-width="1" fill="none" fill-rule="evenodd">
        <g id="skillsets-collapsed" transform="translate(-319.000000, -7655.000000)" fill-rule="nonzero">
            <g id="Group-57" transform="translate(106.000000, 7272.500000)">
                <g id="Group-56" transform="translate(132.000000, 375.000000)">
                    <g id="google_analytics" transform="translate(81.000000, 8.000000)">
                        <g id="Group" transform="translate(51.500000, 7.000000)" fill="#757575">
                            <path d="M139,8.28888889 L143.573333,20.2955556 L134.711111,20.2955556 L139,8.28888889 Z M137.284444,4.28666667 L127.278889,30.5866667 L130.995556,30.5866667 L133.568889,23.44 L144.717778,23.44 L147.291111,30.5866667 L151.007778,30.5866667 L141.002222,4.28666667 L137.285556,4.28666667 L137.284444,4.28666667 Z M191.311111,30.5866667 L194.741111,30.5866667 L194.741111,4.28666667 L191.311111,4.28666667 L191.311111,30.5866667 Z M156.138889,15.1488889 C157.283333,13.4333333 159.568889,12.0044444 161.856667,12.0044444 C166.43,12.0044444 168.717778,15.1488889 168.717778,19.7233333 L168.717778,30.8722222 L165.287778,30.8722222 L165.287778,20.2944444 C165.287778,16.5777778 163.287778,15.15 160.714444,15.15 C157.855556,15.15 155.854444,18.0088889 155.854444,20.5811111 L155.854444,30.5866667 L152.424444,30.5866667 L152.424444,12.2911111 L155.854444,12.2911111 L156.14,15.15 L156.138889,15.1488889 Z M171.577778,25.1555556 C171.577778,21.1533333 175.294444,18.8666667 179.582222,18.8666667 C182.155556,18.8666667 183.871111,19.4388889 184.442222,20.0111111 L184.442222,19.4388889 C184.442222,16.58 182.155556,15.15 179.868889,15.15 C177.868889,15.15 176.152222,16.0077778 175.58,17.7233333 L172.444444,16.2922222 C173.016667,14.5766667 175.303333,12.0033333 179.888889,12.0033333 C184.177778,12.0033333 187.893333,14.5766667 187.893333,19.7222222 L187.893333,30.5855556 L184.748889,30.5855556 L184.748889,28 L184.463333,28 C183.605556,29.4288889 181.604444,31.1444444 178.46,31.1444444 C174.743333,31.1444444 171.598889,28.8577778 171.598889,25.1411111 M184.463333,22.8544444 C184.463333,22.8544444 183.034444,21.71 180.174444,21.71 C176.744444,21.71 175.314444,23.71 175.314444,25.14 C175.314444,27.14 177.314444,27.9988889 179.031111,27.9988889 C181.604444,27.9988889 184.462222,25.7122222 184.462222,22.8544444" id="Shape"></path>
                            <path d="M199.591111,38.5888889 L203.593333,29.1444444 L196.446667,12.5644444 L199.876667,12.5644444 L205.307778,25.1422222 L210.738889,12.5644444 L214.168889,12.5644444 L203.022222,38.5888889 L199.592222,38.5888889 L199.591111,38.5888889 Z M249.902222,18.58 C249.043333,16.2911111 247.043333,14.8633333 245.043333,14.8633333 C242.184444,14.8633333 239.612222,17.4366667 239.612222,21.1522222 C239.612222,24.8677778 242.185556,27.4411111 245.043333,27.4411111 C247.043333,27.4411111 249.045556,26.0122222 249.903333,24.0111111 L252.762222,25.7266667 C251.333333,28.8711111 248.473333,30.8711111 245.043333,30.8711111 C240.183333,30.8711111 236.181111,26.5822222 236.181111,21.1522222 C236.181111,15.4344444 240.183333,11.4322222 245.043333,11.4322222 C248.473333,11.4322222 251.332222,13.4322222 252.762222,16.5766667 L249.903333,18.5766667 L249.902222,18.58 Z" id="Shape"></path>
                            <path d="M262.195556,31.1577778 C266.768889,31.1577778 269.056667,28.5844444 269.056667,25.44 C269.056667,18.5788889 259.051111,21.1511111 259.051111,17.1511111 C259.051111,15.7222222 260.195556,14.8644444 262.195556,14.8644444 C264.195556,14.8644444 266.197778,15.7222222 267.055556,17.1511111 L269.055556,15.1511111 C267.911111,13.7222222 264.766667,11.7211111 261.908889,11.7211111 C257.62,11.7211111 255.334444,14.2944444 255.334444,17.4388889 C255.334444,24.0133333 265.625556,21.7277778 265.625556,25.1577778 C265.625556,26.8733333 264.481111,28.0166667 262.195556,28.0166667 C259.91,28.0166667 258.765556,26.5877778 257.622222,25.1577778 L255.048889,27.1577778 C256.764444,28.8733333 259.337778,31.16 262.195556,31.16 L262.195556,31.1577778 Z M229.606667,30.5855556 L233.036667,30.5855556 L233.036667,12.2911111 L229.606667,12.2911111 L229.606667,30.5866667 L229.606667,30.5855556 Z" id="Shape"></path>
                            <path d="M231.036667,3.42888889 C232.465556,3.42888889 233.323333,4.57333333 233.323333,5.71555556 C233.323333,7.14444444 232.178889,8.00222222 231.036667,8.00222222 C229.894444,8.00222222 228.75,6.85777778 228.75,5.71555556 C228.75,4.57333333 229.894444,3.42888889 231.036667,3.42888889 Z M226.177778,27.7288889 L226.75,30.3022222 L223.32,30.3022222 C220.175556,30.3022222 218.746667,28.0155556 218.746667,24.5844444 L218.746667,15.7222222 L215.316667,15.7222222 L215.316667,12.2922222 L218.746667,12.2922222 L218.746667,6.86111111 L222.176667,6.86111111 L222.176667,12.2922222 L226.178889,12.2922222 L226.178889,15.7222222 L222.176667,15.7222222 L222.176667,25.1666667 C222.176667,27.74 224.176667,27.74 226.178889,27.74 L226.177778,27.7288889 Z" id="Shape"></path>
                            <path d="M15.4933333,14.8633333 L15.4933333,19.1522222 L25.4988889,19.1522222 C25.2133333,21.4388889 24.3544444,23.1544444 23.2122222,24.2966667 C21.7833333,25.7255556 19.4955556,27.4411111 15.4933333,27.4411111 C9.49,27.4411111 4.63,22.5811111 4.63,16.2922222 C4.63,10.2888889 9.49,5.14333333 15.4933333,5.14333333 C18.9233333,5.14333333 21.2111111,6.57222222 22.9377778,8.00222222 L25.7966667,5.14333333 C23.2233333,2.85666667 20.0788889,0.854444444 15.5055556,0.854444444 C7.21666667,0.854444444 0.0688888889,7.71555556 0.0688888889,16.0055556 C0.0688888889,24.2955556 7.20444444,31.1555556 15.4944444,31.1555556 C20.0677778,31.1555556 23.4988889,29.7266667 26.0722222,26.8666667 C28.9311111,24.0077778 29.7888889,20.2922222 29.7888889,17.1466667 C29.7888889,16.2888889 29.7888889,15.1466667 29.5033333,14.5733333 L15.5033333,14.5733333 L15.4933333,14.8633333 Z M40.9355556,11.4444444 C35.5044444,11.4444444 31.2155556,15.4466667 31.2155556,21.1644444 C31.2155556,26.8822222 35.5044444,30.8833333 40.9355556,30.8833333 C46.3666667,30.8833333 50.6555556,26.5944444 50.6555556,21.1644444 C50.6555556,15.4466667 46.3666667,11.4444444 40.9355556,11.4444444 Z M40.9355556,27.1666667 C38.0766667,27.1666667 35.5044444,24.5933333 35.5044444,21.1633333 C35.5044444,17.7333333 38.0777778,15.16 40.9355556,15.16 C43.7933333,15.16 46.3666667,17.4466667 46.3666667,21.1633333 C46.3666667,24.88 43.7933333,27.1666667 40.9355556,27.1666667 Z M87.8177778,13.4444444 C86.6733333,12.3 84.9588889,11.1577778 82.3866667,11.1577778 C77.5266667,11.1577778 73.2388889,15.4466667 73.2388889,20.8777778 C73.2388889,26.3088889 77.5277778,30.5966667 82.3866667,30.5966667 C84.6733333,30.5966667 86.6755556,29.4522222 87.5311111,28.31 L87.8166667,28.31 L87.8166667,29.7388889 C87.8166667,33.4555556 85.8166667,35.4566667 82.6722222,35.4566667 C80.0988889,35.4566667 78.3833333,33.4566667 77.8122222,32.0266667 L74.0955556,33.4555556 C75.24,36.0288889 78.0977778,39.1733333 82.6711111,39.1733333 C87.8155556,39.1733333 92.1155556,36.3144444 92.1155556,28.8822222 L92.1155556,11.16 L88.1133333,11.16 L88.1133333,13.4466667 L87.8177778,13.4444444 Z M82.9577778,27.1666667 C80.0988889,27.1666667 77.8133333,24.5933333 77.8133333,21.1633333 C77.8133333,17.7333333 80.1,15.16 82.9577778,15.16 C85.8155556,15.16 88.1022222,17.7333333 88.1022222,21.1633333 C88.1022222,24.5933333 85.8155556,27.1666667 82.9577778,27.1666667 Z M62.0888889,11.4444444 C56.6577778,11.4444444 52.3688889,15.4466667 52.3688889,21.1644444 C52.3688889,26.8822222 56.6577778,30.8833333 62.0888889,30.8833333 C67.52,30.8833333 71.8088889,26.5944444 71.8088889,21.1644444 C72.0944444,15.4466667 67.52,11.4444444 62.0888889,11.4444444 Z M62.0888889,27.1666667 C59.23,27.1666667 56.6577778,24.5933333 56.6577778,21.1633333 C56.6577778,17.7333333 59.2311111,15.16 62.0888889,15.16 C64.9466667,15.16 67.52,17.4466667 67.52,21.1633333 C67.52,24.88 64.9466667,27.1666667 62.0888889,27.1666667 Z M95.25,1.14222222 L99.5388889,1.14222222 L99.5388889,30.8722222 L95.25,30.8722222 L95.25,1.14222222 Z M111.258889,27.1555556 C108.972222,27.1555556 107.542222,26.0111111 106.398889,24.2966667 L119.548889,18.8655556 L118.976667,17.7211111 C118.118889,15.4344444 115.546667,11.4322222 110.687778,11.4322222 C105.543333,11.4322222 101.54,15.4344444 101.54,21.1522222 C101.54,26.5833333 105.828889,30.8711111 111.26,30.8711111 C115.833333,30.8711111 118.406667,28.0122222 119.548889,26.5822222 L116.118889,24.2955556 C114.974444,26.0111111 113.545556,27.1544444 111.258889,27.1544444 L111.258889,27.1555556 Z M110.973333,15.1488889 C112.688889,15.1488889 114.117778,16.0066667 114.69,17.4355556 L105.827778,21.1522222 C105.827778,16.8633333 108.686667,15.1488889 110.972222,15.1488889 L110.973333,15.1488889 Z" id="Shape"></path>
                        </g>
                        <g id="Group" transform="translate(0.849621, 0.069732)">
                            <path d="M29.14208,5.563467 L29.14208,40.533831 C29.14208,44.4468028 31.8443456,46.627152 34.705568,46.627152 C37.354848,46.627152 40.269056,44.772663 40.269056,40.533831 L40.269056,5.828394 C40.269056,2.24128242 37.619776,0 34.705568,0 C31.79136,0 29.14208,2.47176891 29.14208,5.563467 Z" id="Path" fill="#F9AB00"></path>
                            <g transform="translate(0.000000, 17.750109)" fill="#E37400">
                                <path d="M14.57104,5.563467 L14.57104,22.783722 C14.57104,26.6966938 17.2733056,28.877043 20.134528,28.877043 C22.783808,28.877043 25.698016,27.022554 25.698016,22.783722 L25.698016,5.828394 C25.698016,2.24128242 23.048736,0 20.134528,0 C17.22032,0 14.57104,2.47176891 14.57104,5.563467 Z" id="Path"></path>
                                <ellipse id="Oval" cx="5.563488" cy="23.313576" rx="5.563488" ry="5.563467"></ellipse>
                            </g>
                        </g>
                    </g>
                </g>
            </g>
        </g>
    </g>
</svg>