<?xml version="1.0" encoding="UTF-8"?>
<svg width="152px" height="44px" viewBox="0 0 152 44" version="1.1" xmlns="http://www.w3.org/2000/svg" xmlns:xlink="http://www.w3.org/1999/xlink">
    <title>hubspot</title>
    <g id="Page-1" stroke="none" stroke-width="1" fill="none" fill-rule="evenodd">
        <g id="skillsets-collapsed" transform="translate(-671.000000, -7657.000000)" fill-rule="nonzero">
            <g id="Group-57" transform="translate(106.000000, 7272.500000)">
                <g id="Group-56" transform="translate(132.000000, 375.000000)">
                    <g id="hubspot" transform="translate(433.000000, 9.500000)">
                        <path d="M0.0177801724,8.20228987 L5.30797414,8.20228987 L5.30797414,19.9555765 L16.4653287,19.9555765 L16.4653287,8.20228987 L21.7623384,8.20228987 L21.7623384,37.0529903 L16.4653287,37.0529903 L16.4653287,25.0528556 L5.30797414,25.0528556 L5.30797414,37.0529903 L0.0177801724,37.0529903 L0.0177801724,8.20228987 Z M38.5216325,27.6558728 C38.5216325,30.0710129 36.5539601,32.0363147 34.1394127,32.0363147 C31.7239763,32.0363147 29.7574892,30.0710129 29.7574892,27.6558728 L29.7574892,15.2346444 L24.7405172,15.2346444 L24.7405172,27.6558728 C24.7405172,32.8379041 28.9570851,37.0529903 34.1394127,37.0529903 C39.320555,37.0529903 43.5368265,32.8379041 43.5368265,27.6558728 L43.5368265,15.2346444 L38.5216325,15.2346444 L38.5216325,27.6558728 M57.5422683,15.3801455 C55.0536369,15.3801455 53.316514,16.1023168 51.6389547,17.7490571 L51.6389547,8.20228987 L46.6056843,8.20228987 L46.6056843,25.8950431 C46.6056843,32.5175647 51.3938847,37.0529903 56.7732759,37.0529903 C62.7536369,37.0529903 67.9934537,32.4366649 67.9934537,26.2168642 C67.9934537,20.075889 63.1616918,15.3801455 57.5422683,15.3801455 L57.5422683,15.3801455 Z M57.6673222,32.3966595 C54.2567888,32.3966595 51.6487338,29.5482759 51.6487338,26.2168642 C51.6487338,22.8848599 54.2567888,20.0355873 57.6673222,20.0355873 C60.5571929,20.0355873 63.1667295,22.8848599 63.1667295,26.2168642 C63.1667295,29.5482759 60.5571929,32.3966595 57.6673222,32.3966595 L57.6673222,32.3966595 Z M76.4470366,16.6481681 C76.4470366,14.1180496 78.1328933,13.3158675 79.9784752,13.3158675 C81.464305,13.3158675 83.4304957,14.4395744 84.7136315,15.8044989 L88.0038524,11.9518319 C86.3594828,9.74471983 83.0289601,8.21918103 80.2997037,8.21918103 C74.8408944,8.21918103 70.9076239,11.3899784 70.9076239,16.6481681 C70.9076239,26.4005927 82.9083513,23.3092134 82.9083513,28.7689116 C82.9083513,30.452694 81.263389,31.9391164 79.3780981,31.9391164 C76.4070313,31.9391164 75.4433459,30.494181 74.0793103,28.9686422 L70.4263739,32.7407058 C72.7555765,35.5905711 75.6442619,37.0360991 79.0962823,37.0360991 C84.2732759,37.0360991 88.4474677,33.8252963 88.4474677,28.8077317 C88.4474677,17.9719019 76.4470366,21.3436153 76.4470366,16.6481681 M101.697845,15.0974407 C96.3190463,15.0974407 91.5302532,19.6301994 91.5302532,26.2542026 L91.5302532,43.9925916 L96.5632274,43.9925916 L96.5632274,34.4004849 C98.241083,36.0460399 99.9773168,36.7693966 102.466837,36.7693966 C108.085964,36.7693966 112.918319,32.0742457 112.918319,25.9332705 C112.918319,19.7125808 107.67702,15.0974407 101.697845,15.0974407 L101.697845,15.0974407 Z M102.592187,32.1145474 C99.1819504,32.1145474 96.5735991,29.2623114 96.5735991,25.9332705 C96.5735991,22.6012662 99.1819504,19.7519935 102.592187,19.7519935 C105.481466,19.7519935 108.091298,22.6012662 108.091298,25.9332705 C108.091298,29.2623114 105.481466,32.1145474 102.592187,32.1145474 L102.592187,32.1145474 Z M149.966568,32.3966595 C146.997872,32.3966595 146.155092,31.112931 146.155092,29.145555 L146.155092,20.4368265 L150.769639,20.4368265 L150.769639,16.0226024 L146.155092,16.0226024 L146.155092,10.2025593 L141.059591,12.4896821 L141.059591,30.2292565 C141.059591,34.7649784 144.188901,37.0529903 148.481331,37.0529903 C149.123491,37.0529903 150.007462,37.0115032 150.489601,36.8926724 L151.733917,32.3178341 C151.172064,32.3566541 150.530199,32.3966595 149.966568,32.3966595" id="Shape" fill="#45535E"></path>
                        <path d="M136.693373,20.6934537 C135.728502,19.0333782 134.371282,17.7025323 132.674461,16.7006196 C131.406439,15.9624461 130.091595,15.4939386 128.609914,15.2927263 L128.609914,10.0179418 C130.091595,9.38882004 131.011126,7.99633621 131.011126,6.37182112 C131.011126,4.15759698 129.23548,2.36328125 127.023033,2.36328125 C124.808809,2.36328125 123.002047,4.15759698 123.002047,6.37182112 C123.002047,7.99633621 123.868534,9.38882004 125.350216,10.0179418 L125.350216,15.295097 C124.164871,15.4663793 122.935668,15.8359106 121.813147,16.4036907 C119.520393,14.6624192 112.002344,8.94994612 107.604418,5.61349677 C107.708728,5.23744612 107.789036,4.84983836 107.789036,4.4408944 C107.789036,1.98841595 105.80299,0.000592672413 103.349623,0.000592672413 C100.896255,0.000592672413 98.9110991,1.98841595 98.9110991,4.4408944 C98.9110991,6.89307651 100.89833,8.88149246 103.351697,8.88149246 C104.188551,8.88149246 104.962581,8.63671875 105.630523,8.23429418 L106.558648,8.93838901 L119.311773,18.1271821 C118.637608,18.7462284 118.009671,19.4503233 117.507381,20.2403556 C116.489467,21.8509429 115.867457,23.6230334 115.867457,25.5560345 L115.867457,25.9593481 C115.867457,27.3162716 116.125269,28.597333 116.56444,29.8007543 C116.951158,30.8515625 117.516568,31.8069504 118.21681,32.6707705 L113.98424,36.9137123 C112.73144,36.4474198 111.321712,36.7565726 110.379014,37.7043373 C109.733495,38.346679 109.371943,39.220678 109.375027,40.1313308 C109.375323,41.0478987 109.732408,41.9093481 110.380792,42.5574353 C111.022714,43.2034326 111.896495,43.5656225 112.807193,43.5632125 C113.718134,43.5655295 114.592156,43.2033721 115.234483,42.5574353 C115.87958,41.9151273 116.241256,41.0416636 116.239062,40.1313308 C116.239062,39.7766164 116.18424,39.4304957 116.081115,39.1015625 L120.455927,34.7261584 C121.055711,35.1404364 121.703502,35.4892241 122.399892,35.7900054 C123.773411,36.3838631 125.289467,36.7456897 126.948653,36.7456897 L127.252694,36.7456897 C129.087015,36.7456897 130.817322,36.3148168 132.443912,35.4335129 C134.15792,34.5021282 135.499434,33.2284752 136.512904,31.6024784 C137.531708,29.9720366 138.092672,28.1706088 138.092672,26.1887123 L138.092672,26.089736 C138.092672,24.1401401 137.641352,22.3413793 136.693373,20.6934537 L136.693373,20.6934537 Z M131.34806,29.871875 C130.160641,31.1914601 128.795717,32.0043103 127.252694,32.0043103 L126.998438,32.0043103 C126.117134,32.0043103 125.255092,31.760722 124.411126,31.3176994 C123.459887,30.82993 122.736827,30.1341325 122.145043,29.253125 C121.533405,28.3884159 121.201509,27.4442888 121.201509,26.4432651 L121.201509,26.1392241 C121.201509,25.1550916 121.390275,24.2219289 121.866191,23.340625 C122.375,22.377236 123.062204,21.6280981 123.976105,21.0324623 C124.873411,20.4409752 125.831762,20.1508621 126.899165,20.1508621 L126.998437,20.1508621 C127.966272,20.1508621 128.882543,20.3417026 129.747252,20.7841325 C130.62826,21.2558998 131.34806,21.900431 131.906061,22.7482489 C132.44806,23.5963631 132.770474,24.511153 132.874192,25.5077317 C132.89049,25.7148707 132.898788,25.9270474 132.898788,26.1297414 C132.898788,27.4822198 132.381977,28.734833 131.34806,29.871875 Z" id="Shape" fill="#F8761F"></path>
                    </g>
                </g>
            </g>
        </g>
    </g>
</svg>