<?xml version="1.0" encoding="UTF-8"?>
<svg width="149px" height="45px" viewBox="0 0 149 45" version="1.1" xmlns="http://www.w3.org/2000/svg" xmlns:xlink="http://www.w3.org/1999/xlink">
    <title>Lifehacker</title>
    <defs>
        <rect id="path-1" x="0" y="0" width="149" height="45"></rect>
    </defs>
    <g id="home" stroke="none" stroke-width="1" fill="none" fill-rule="evenodd">
        <g id="Lifehacker">
            <mask id="mask-2" fill="white">
                <use xlink:href="#path-1"></use>
            </mask>
            <g id="Mask"></g>
            <g mask="url(#mask-2)" id="g10">
                <g transform="translate(6.000000, 5.000000)">
                    <g transform="translate(68.000000, 17.216721) scale(-1, 1) rotate(-180.000000) translate(-68.000000, -17.216721) translate(0.000000, 0.216721)" id="g12" fill="#FFFFFF" fill-rule="nonzero">
                        <path d="M22.290123,0.40131647 L22.290123,14.0474672 L26.2015313,14.0474672 L26.2015313,19.2626251 L22.290123,19.2626251 L22.290123,26.3282993 C22.290123,27.4217873 23.1732354,28.3050593 24.2247714,28.3050593 L24.2247714,28.3050593 L26.6219633,28.3050593 L26.8324073,33.3098872 C26.5800113,33.4779232 25.5284754,33.8566312 24.2247714,33.8566312 C20.3554063,33.8566312 17.0749652,30.2815912 17.0749652,26.3282993 L17.0749652,26.3282993 L17.0749652,0.40131647 L22.290123,0.40131647 Z M5.21513507,0.378516471 L5.21513507,33.1838032 L2.04281037e-13,33.5201032 L2.04281037e-13,0.378516471 L5.21513507,0.378516471 Z M50.4771467,0.378516471 L50.4771467,20.0616739 L53.6734787,20.0616739 C55.4819746,20.0616739 56.9539426,18.6317035 56.9539426,16.8230936 L56.9539426,16.8230936 L56.9539426,0.378516471 L60.2344065,0.378516471 L60.2344065,16.8230936 C60.2344065,20.4822427 57.4587346,23.7206634 53.8836947,23.7206634 C52.8743387,23.7206634 51.4023707,23.5945794 50.4771467,23.3002314 L50.4771467,23.3002314 L50.4771467,33.3098872 L47.1123228,33.3098872 L47.1123228,0.378516471 L50.4771467,0.378516471 Z M97.8719616,0.378516471 L97.8719616,33.2257552 L94.5073656,33.2257552 L94.5073656,0.378516471 L97.8719616,0.378516471 Z M11.1450045,25.2345834 C12.7852821,25.2345834 14.1310976,26.5804673 14.1310976,28.2209273 C14.1310976,29.8611593 12.7852821,31.2070432 11.1450045,31.2070432 C9.50474976,31.2070432 8.1589342,29.8611593 8.1589342,28.2209273 C8.1589342,26.5804673 9.50474976,25.2345834 11.1450045,25.2345834 Z M28.3109873,7.23400662 C28.3109873,3.28071472 31.4231872,-0.630830384 35.9656311,0.126290565 L35.9656311,0.126290565 L40.676111,0.841105659 L40.507847,5.25726947 L35.5027911,5.25726947 C34.4093031,5.25726947 33.5262592,6.14076945 33.5262592,7.23400662 L33.5262592,7.23400662 L33.5262592,9.50527416 L40.045235,9.50527416 C41.475023,9.50527416 42.6526429,10.6407369 42.6526429,12.1125909 L42.6526429,12.1125909 L42.6526429,17.159576 C42.6526429,21.1132555 39.456311,24.3515394 35.5027911,24.3515394 C31.5073192,24.3515394 28.3109873,21.1132555 28.3109873,17.159576 L28.3109873,17.159576 Z M13.7525949,0.378516471 L13.7525949,23.7206634 L8.53743699,24.0150114 L8.53743699,0.378516471 L13.7525949,0.378516471 Z M128.995785,0.378516471 L128.995785,16.7811644 C128.995785,18.5054143 130.425573,20.3980651 132.192117,20.3980651 L132.192117,20.3980651 L135.851289,20.3140015 C135.893241,21.0710299 135.935193,21.9122359 135.977373,22.9215234 C135.009969,23.3841354 134.126697,23.7206634 132.696681,23.7628434 C128.490993,23.8467474 125.630961,20.4402907 125.630961,16.7811644 L125.630961,16.7811644 L125.630961,0.378516471 L128.995785,0.378516471 Z M69.3051583,0.126290565 C72.9223782,0.126290565 75.8243621,3.11247352 75.8243621,6.72921463 L75.8243621,6.72921463 L75.8243621,16.7392124 C75.8243621,20.3980651 73.0484622,23.8047954 68.8427743,23.7206634 C67.4547103,23.6787114 65.8144784,23.2580514 64.6790384,22.8373914 C64.7209904,21.9122359 64.7631704,21.4496239 64.8051224,20.2299151 C66.2351383,20.3140015 67.9592743,20.4822427 69.3051583,20.5241947 L69.3051583,20.5241947 L69.2632063,20.5241947 C71.6603982,20.7767731 72.5436702,19.2626251 72.5436702,17.3699516 L72.5436702,17.3699516 L72.5436702,14.720432 C71.6603982,14.9725544 70.8614862,15.1407956 69.3051583,15.1407956 C65.1836024,15.1407956 62.7022784,12.4071213 62.7022784,8.79010658 L62.7022784,8.79010658 L62.7022784,6.72921463 C62.7022784,3.11247352 65.6883944,0.126290565 69.3051583,0.126290565 Z M85.2466899,1.43884904e-13 C88.7375978,1.43884904e-13 91.6815337,2.77589993 91.8497977,6.26662544 C91.7237137,6.26662544 90.1673857,6.35068904 88.5273818,6.47706944 C88.4852018,4.71052548 87.0132338,3.36459592 85.2466899,3.36459592 C83.4803739,3.36459592 82.0501299,4.75263708 82.0501299,6.60308503 L82.0501299,6.60308503 L82.0501299,17.117624 C82.0501299,18.8840083 83.4803739,20.3559535 85.2466899,20.3559535 C87.0551858,20.3559535 88.5273818,18.8840083 88.5273818,17.117624 L88.5273818,17.117624 L88.5273818,16.6129232 C89.4945578,16.6548752 90.5460937,16.6548752 91.8497977,16.6969868 L91.8497977,16.6969868 L91.8497977,17.117624 C91.8497977,20.7767731 88.8639098,23.7206634 85.2466899,23.7206634 C81.629926,23.7206634 78.685534,20.7767731 78.685534,17.117624 L78.685534,17.117624 L78.685534,6.60308503 C78.685534,2.94414113 81.629926,1.43884904e-13 85.2466899,1.43884904e-13 Z M109.515693,6.64531063 C109.515693,2.98609313 112.375725,-0.588702825 116.497281,0.126290565 L116.497281,0.126290565 L120.534933,0.757208501 C120.450801,1.51388348 120.408621,2.27136102 120.366669,3.36459592 L120.366669,3.36459592 L116.118801,3.36459592 C114.310305,3.36459592 112.880289,4.83681468 112.880289,6.64531063 L112.880289,6.64531063 L112.880289,10.2200997 L120.997545,10.2200997 C121.922769,10.2200997 122.679957,10.9349253 122.679957,11.9023977 L122.679957,11.9023977 L122.679957,17.0756948 C122.679957,20.7345475 119.735565,23.7206634 116.118801,23.7206634 C112.459857,23.7206634 109.515693,20.7345475 109.515693,17.0756948 L109.515693,17.0756948 Z M108.807069,0.378516471 L101.951565,12.6173145 L108.302505,23.3841354 L104.475069,23.3841354 L98.8393655,14.0474672 C98.0821775,12.7436037 98.0821775,12.6173145 98.7132815,11.5240545 L98.7132815,11.5240545 L105.105945,0.378516471 L108.807069,0.378516471 Z M119.357313,13.5427437 L112.880289,13.5427437 L112.880289,17.0756948 C112.880289,18.8840083 114.310305,20.3559535 116.118801,20.3559535 C117.885117,20.3559535 119.357313,18.8840083 119.357313,17.0756948 L119.357313,17.0756948 L119.357313,13.5427437 Z M37.4375991,14.720432 L33.5262592,14.720432 L33.5262592,17.159576 C33.5262592,18.2532691 34.4093031,19.1364043 35.5027911,19.1364043 C36.5543271,19.1364043 37.4375991,18.2532691 37.4375991,17.159576 L37.4375991,17.159576 L37.4375991,14.720432 Z M69.3051583,3.44895591 C67.4968903,3.44895591 66.0668743,4.92096948 66.0668743,6.72921463 L66.0668743,6.72921463 L66.0668743,9.16881457 C66.0668743,10.9770369 67.4968903,12.4071213 69.3051583,12.4071213 L69.3051583,12.4071213 L72.5436702,12.4071213 L72.5436702,6.72921463 C72.5436702,4.92096948 71.1138822,3.44895591 69.3051583,3.44895591 Z" id="Combined-Shape"></path>
                    </g>
                </g>
            </g>
        </g>
    </g>
</svg>