<?xml version="1.0" encoding="UTF-8"?>
<svg width="156px" height="45px" viewBox="0 0 156 45" version="1.1" xmlns="http://www.w3.org/2000/svg" xmlns:xlink="http://www.w3.org/1999/xlink">
    <title>medium-seeklogo.com</title>
    <defs>
        <rect id="path-1" x="0" y="0" width="156" height="45"></rect>
    </defs>
    <g id="home" stroke="none" stroke-width="1" fill="none" fill-rule="evenodd">
        <g id="medium-seeklogo.com">
            <mask id="mask-2" fill="white">
                <use xlink:href="#path-1"></use>
            </mask>
            <g id="Mask"></g>
            <g mask="url(#mask-2)" fill="#FFFFFF" fill-rule="nonzero" id="Shape">
                <g transform="translate(3.000000, 11.000000)">
                    <path d="M11.1773538,0.248385641 C17.3373178,0.248385641 22.3547077,5.2657756 22.3547077,11.4754166 C22.3547077,17.6850576 17.3373178,22.7024476 11.1773538,22.7024476 C5.01738994,22.7024476 0,17.7347348 0,11.4754166 C0,5.21609846 5.01738994,0.248385641 11.1773538,0.248385641 Z M98.807808,0 L98.807808,19.6721428 C98.807808,21.1624566 99.4039335,21.5598736 100.546507,21.8579364 L100.546507,21.8579364 L100.596185,22.1063221 L94.2871892,22.1063221 L94.2871892,19.6721428 C93.5420323,21.4605194 92.0020415,22.5534162 90.0149563,22.5534162 C86.6369117,22.5534162 84.4014409,19.4734342 84.4014409,14.9031385 C84.4014409,12.3199278 85.1465978,10.1341342 86.5375572,8.49478892 C87.8788397,6.90512083 89.7168935,6.06060963 91.7536557,6.06060963 C92.7471985,6.06060963 93.5917095,6.25931815 94.2871892,6.70641231 L94.2871892,6.70641231 L94.2871892,4.02384738 C94.2871892,3.42772185 94.1381579,3.03030483 93.8400951,2.73224205 C93.4426782,2.38450215 92.7968754,2.23547077 91.8033329,2.33482502 L91.8033329,2.33482502 L91.7536557,2.33482502 L91.7536557,2.08643938 L98.807808,0 Z M122.752184,6.11028677 L122.752184,19.6721428 C122.752184,21.1624566 123.348309,21.5598736 124.490883,21.8579364 L124.490883,21.8579364 L124.490883,22.1063221 L118.181888,22.1063221 L118.181888,19.6224656 C117.436731,21.4108422 115.797386,22.5534162 113.959332,22.5534162 C111.773538,22.5534162 110.382579,21.5598736 109.83613,19.6224656 L109.83613,19.6224656 L109.736776,19.1256944 C109.637422,18.6289231 109.587745,18.1321518 109.587745,17.6353805 L109.587745,17.6353805 L109.587745,10.3825198 C109.587745,8.79285169 109.240005,8.2960804 107.849045,8.19672615 L107.849045,8.19672615 L107.799368,8.19672615 L107.799368,7.94834052 L114.108363,6.11028677 L114.108363,17.5360262 C114.108363,19.2250486 114.85352,20.1689141 116.24448,20.1689141 C117.088991,20.1689141 117.784471,19.7218199 118.181888,18.976663 L118.181888,18.976663 L118.181888,10.3825198 C118.181888,8.74317455 117.883825,8.24640329 116.741251,8.14704902 L116.741251,8.14704902 L116.691574,8.14704902 L116.691574,7.89866338 L122.752184,6.11028677 Z M77.1982572,6.06060963 C78.8872797,6.06060963 80.5266249,6.65673517 81.6195215,7.69995486 C82.8614498,8.89220594 83.5072526,10.6309054 83.5569295,12.9160533 L83.5569295,12.9160533 L83.5569295,12.9657305 L74.0685982,12.9657305 C73.8698895,16.2444209 75.906652,18.9269858 78.5892169,19.0263401 C80.5266249,19.1753715 82.2156471,17.9831204 83.1595126,16.0457124 L83.1595126,16.0457124 L83.4078982,16.1450667 C82.8614498,19.771497 80.7253332,22.5037391 76.9995486,22.5037391 C72.7769929,22.5037391 70.3924908,18.976663 70.2931363,14.5553986 L70.2931363,14.5553986 L70.2931363,13.4128246 C70.4918449,11.4754166 71.0879705,9.73671714 72.1311902,8.44511179 C72.7769929,7.65027775 73.5221498,7.05415221 74.4163381,6.65673517 C75.1614951,6.25931815 76.2543917,6.06060963 77.14858,6.06060963 L77.14858,6.06060963 L77.1982572,6.06060963 Z M142.921098,6.11028677 C145.603663,6.11028677 147.243008,7.79930914 147.243008,10.6805826 L147.243008,10.6805826 L147.243008,19.9205284 C147.243008,21.0134252 147.739779,21.5598736 148.981707,21.8579364 L148.981707,21.8579364 L149.031385,21.8579364 L149.031385,22.1063221 L142.672712,22.1063221 L142.672712,10.8296139 C142.672712,9.04123732 142.02691,8.14704902 140.685627,8.14704902 C139.59273,8.14704902 139.046282,8.94188308 138.748219,9.63736286 C138.797896,9.98510277 138.847573,10.3328427 138.847573,10.6805826 L138.847573,10.6805826 L138.847573,20.0695598 C138.847573,21.2121338 139.195313,21.6095508 140.188856,21.8579364 L140.188856,21.8579364 L140.238533,21.8579364 L140.238533,22.1063221 L134.326955,22.1063221 L134.326955,10.8296139 C134.326955,9.04123732 133.631475,8.14704902 132.33987,8.14704902 C131.29665,8.14704902 130.750202,8.89220594 130.501816,9.48833148 L130.501816,9.48833148 L130.501816,20.1192369 C130.501816,21.2618109 130.849556,21.6592279 131.843098,21.9076135 L131.843098,21.9076135 L131.892775,21.9076135 L131.892775,22.1559992 L125.981197,22.1559992 L125.981197,10.3328427 C125.981197,8.74317455 125.58378,8.24640329 124.242498,8.14704902 L124.242498,8.14704902 L124.192821,8.14704902 L124.192821,7.89866338 L130.501816,6.15996391 L130.501816,8.79285169 C131.147618,7.10382932 132.637932,6.11028677 134.525663,6.11028677 C136.66178,6.11028677 138.152094,7.15350646 138.648865,9.04123732 C139.294667,7.25286071 140.934013,6.11028677 142.921098,6.11028677 Z M52.310016,0.993542563 L58.2215942,14.8534613 L64.1331726,0.993542563 L70.4918449,0.993542563 L70.4421677,1.24192821 L70.36998,1.25799314 C69.2744966,1.50767498 68.7034683,1.91732576 68.7034683,3.27869046 L68.7034683,3.27869046 L68.7034683,20.1689141 C68.8028225,21.2618109 69.398948,21.6095508 70.4421677,21.8579364 L70.4421677,21.8579364 L70.4918449,21.8579364 L70.4918449,22.1063221 L62.3944729,22.1063221 L62.3944729,21.8579364 L62.4441502,21.8579364 C63.4873698,21.6095508 64.0834954,21.2618109 64.1828495,20.1689141 L64.1828495,20.1689141 L64.1828495,3.72578462 L56.3835406,22.0566449 L55.9364465,22.0566449 L48.3358458,4.22255591 L48.3358458,19.771497 C48.3358458,21.1624566 48.9319714,21.5598736 50.0745452,21.8082593 L50.0745452,21.8082593 L50.1242225,21.8082593 L50.1242225,22.0566449 L45.4545723,22.0566449 L45.4545723,21.8082593 L45.5042495,21.8082593 C46.6468234,21.5598736 47.2429489,21.1624566 47.2429489,19.771497 L47.2429489,19.771497 L47.2429489,3.27869046 C47.2429489,1.88773087 46.6468234,1.49031385 45.5042495,1.24192821 L45.5042495,1.24192821 L45.4545723,1.24192821 L45.4545723,0.993542563 L52.310016,0.993542563 Z M106.507763,6.11028677 L106.507763,19.6721428 L106.508538,19.7638733 C106.532838,21.1789725 107.127692,21.5660833 108.246462,21.8579364 L108.246462,21.8579364 L108.296139,22.1063221 L101.987144,22.1063221 L101.987144,10.3825198 C101.987144,8.79285169 101.639404,8.2960804 100.248445,8.19672615 L100.248445,8.19672615 L100.198768,8.19672615 L100.198768,7.94834052 L106.507763,6.11028677 Z M29.06112,0.894188308 C32.0914249,0.894188308 34.6249585,5.66319262 34.6249585,11.4754166 C34.6249585,17.3373178 32.1411019,22.0566449 29.06112,22.0566449 C25.9811381,22.0566449 23.4972816,17.3373178 23.4972816,11.4754166 C23.4972816,5.61351548 25.9811381,0.894188308 29.06112,0.894188308 Z M37.6055861,1.98708513 C38.74816,1.98708513 39.5926711,6.25931815 39.5926711,11.4754166 C39.5926711,16.6915151 38.6984828,20.9637481 37.6055861,20.9637481 C36.5236183,20.9637481 35.6364045,16.7765325 35.6187684,11.6316131 L35.6185009,11.4754166 C35.6185009,6.25931815 36.5126892,1.98708513 37.6055861,1.98708513 Z M92.4988126,6.95479794 C90.5117277,6.95479794 89.2697994,9.58768575 89.2697994,13.6612102 C89.2697994,15.5986182 89.6175394,17.2876406 90.2136649,18.4302146 C90.7601132,19.5231114 91.5549474,20.1192369 92.4491357,20.1192369 C93.343324,20.1192369 93.9891265,19.7218199 94.2871892,18.976663 L94.2871892,18.976663 L94.2871892,8.04769477 C93.9394495,7.35221498 93.2936468,6.95479794 92.4988126,6.95479794 Z M77.14858,7.00447508 C75.3602034,7.00447508 74.3169837,9.1405916 74.1679523,12.1212193 L74.1679523,12.1212193 L74.1679523,12.1708964 L79.5827594,12.1708964 C79.6821135,9.83607138 79.2846966,8.2960804 78.5395397,7.55092348 C78.1421228,7.2031836 77.6950286,7.00447508 77.14858,7.00447508 Z M104.073584,0.149031385 C105.51422,0.149031385 106.607117,1.24192821 106.607117,2.68256492 C106.607117,4.12320163 105.51422,5.21609846 104.073584,5.21609846 C102.632947,5.21609846 101.54005,4.12320163 101.54005,2.68256492 C101.54005,1.24192821 102.632947,0.149031385 104.073584,0.149031385 Z"></path>
                </g>
            </g>
        </g>
    </g>
</svg>