<?xml version="1.0" encoding="UTF-8"?>
<svg width="47px" height="45px" viewBox="0 0 47 45" version="1.1" xmlns="http://www.w3.org/2000/svg" xmlns:xlink="http://www.w3.org/1999/xlink">
    <title>NBC_logo</title>
    <defs>
        <rect id="path-1" x="0" y="0" width="47" height="45"></rect>
    </defs>
    <g id="home" stroke="none" stroke-width="1" fill="none" fill-rule="evenodd">
        <g id="NBC_logo">
            <mask id="mask-2" fill="white">
                <use xlink:href="#path-1"></use>
            </mask>
            <g id="Mask"></g>
            <g mask="url(#mask-2)" fill="#FFFFFF" fill-rule="nonzero">
                <g transform="translate(2.000000, 1.000000)">
                    <path d="M5.58066551,7.41083276 C3.88757405,8.94346711 3.27136794,12.4161535 6.32341461,14.4462198 L18.4991065,22.799626 L12.5954351,9.27439123 C11.3583915,6.08272894 7.97415077,5.38674248 5.58066551,7.41083276" id="path3115"></path>
                    <path d="M16.0615478,0.83485507 C14.0824274,0.87511875 11.1106092,3.23200067 12.4331852,6.8309312 L18.538922,21.2310607 L20.6845503,6.08489526 C21.1810859,2.32139908 18.3329721,0.584084806 16.0615478,0.83485507" id="path3117"></path>
                    <path d="M21.6375819,5.50730942 L22.7920813,5.50730942 C22.7920813,5.50730942 23.4086609,5.50730942 23.4925498,5.79811926 C23.0382201,6.16915766 21.8014005,6.2156215 21.9655927,8.19758058 L23.9066158,21.2291184 L29.9708189,6.79111572 C31.2112241,3.56740683 28.6075311,0.87511875 26.2979347,0.792798574 C26.1901416,0.785029701 26.0818256,0.778754842 25.9699239,0.778754842 C23.89683,0.778754842 21.5212729,2.28524394 21.6375819,5.50730942" id="path3119"></path>
                    <path d="M29.726697,9.39697509 L23.9908035,22.7598853 L36.1630591,14.3624056 C38.9688923,12.3722294 38.5162807,9.19042764 36.9456984,7.61775371 C36.2872864,6.87754444 35.0783302,6.3057105 33.7975866,6.3057105 C32.2845986,6.30548644 30.6653114,7.10799611 29.726697,9.39697509" id="path3121"></path>
                    <path d="M34.8002195,16.2638373 L23.3689948,24.2483715 L37.4439521,24.2483715 C40.3315825,24.2483715 42.1872974,21.2708761 41.3623775,18.5386979 C40.8098911,16.8214034 39.1752156,15.4732798 37.2778924,15.4713376 C36.4792672,15.4717111 35.6323106,15.7122473 34.8002195,16.2638373" id="path3123"></path>
                    <path d="M5.25265472,24.2483715 L19.119944,24.2483715 L7.68595546,16.2638373 C5.04453856,14.5666373 2.07421445,15.5597085 1.00196055,18.3760744 C0.0930770775,21.6001568 2.36240977,24.2483715 5.25265472,24.2483715" id="path3125"></path>
                    <path d="M20.609999,35.1728266 L23.1825418,35.1728266 C23.7738726,35.2100275 24.8221476,35.7263588 24.8221476,36.9491346 C24.8221476,38.2280854 23.7342065,38.7441179 23.1447433,38.8023844 L20.609999,38.8023844 L20.609999,35.1728266 M20.5707811,29.4790642 L22.6882473,29.4790642 C23.4120224,29.5181327 24.2678684,30.0529897 24.2678684,31.0459862 C24.2678684,32.0200087 23.6208109,32.6691578 22.7836401,32.7848692 L20.5707811,32.7848692 L20.5707811,29.4790642 M17.67583,27.1096326 L17.67583,41.1694256 L24.4977971,41.1694256 C26.1170096,41.1694256 28.0418227,39.5465528 28.0418227,37.4259492 C28.0418227,35.2103263 26.5943471,34.1221612 25.6785165,33.6824728 C25.6785165,33.6824728 27.3554726,32.7083757 27.2809213,30.6064472 C27.2046519,27.7790256 24.5927417,27.1096326 23.6973044,27.1096326 L17.67583,27.1096326" id="path3127"></path>
                    <polygon id="polygon3129" points="7.21227829 41.1694256 7.21227829 33.0714211 16.0546007 41.7042827 16.0546007 27.1096326 13.0833054 27.1096326 13.0833054 35.0004921 4.23889146 26.5378734 4.23889146 41.1694256"></polygon>
                    <path d="M28.5195337,33.9872517 C28.594085,38.4335123 31.7887353,41.7576937 35.8956306,41.7576937 C36.8693543,41.7576937 37.895219,41.573407 38.9436434,41.1694256 L38.9436434,38.3046536 C38.1127475,38.8123943 37.1881769,39.0571885 36.2822814,39.0571885 C33.796989,39.0571885 31.4519845,37.2181319 31.5490207,33.873109 C31.7164997,31.1596807 33.9378745,29.2860376 36.3318827,29.2860376 C37.2085702,29.2860376 38.1102824,29.5386007 38.9436434,30.0903401 L38.9436434,27.3023604 C37.9719367,26.9084636 37.0060566,26.7323193 36.0756593,26.7323193 C31.9790727,26.7323193 28.5981935,30.1878245 28.5195337,33.9872517" id="path3131"></path>
                </g>
            </g>
        </g>
    </g>
</svg>