<?xml version="1.0" encoding="UTF-8"?>
<svg width="54px" height="45px" viewBox="0 0 54 45" version="1.1" xmlns="http://www.w3.org/2000/svg" xmlns:xlink="http://www.w3.org/1999/xlink">
    <title>product-hunt-logo-vertical-black</title>
    <defs>
        <rect id="path-1" x="0" y="0" width="54" height="45"></rect>
    </defs>
    <g id="home" stroke="none" stroke-width="1" fill="none" fill-rule="evenodd">
        <g id="product-hunt-logo-vertical-black">
            <mask id="mask-2" fill="white">
                <use xlink:href="#path-1"></use>
            </mask>
            <g id="Mask"></g>
            <g mask="url(#mask-2)">
                <g transform="translate(3.000000, 1.000000)">
                    <path d="M39.8421875,16.125 C39.8421875,25.0305687 32.6227562,32.25 23.7171875,32.25 C14.8116187,32.25 7.5921875,25.0305687 7.5921875,16.125 C7.5921875,7.21943125 14.8116187,0 23.7171875,0 C32.6227562,0 39.8421875,7.21943125 39.8421875,16.125" id="Fill-1" fill="#6F6F6F"></path>
                    <path d="M25.8671875,16.124953 L25.8671875,16.1250202 L21.2984375,16.1250202 L21.2984375,11.2875202 L25.8671875,11.2875202 L25.8671875,11.2875202 C27.2030094,11.2875202 28.2858703,12.3703811 28.2858703,13.706203 C28.2858703,15.0420248 27.2030094,16.124953 25.8671875,16.124953 M25.8671875,8.06252016 L25.8671875,8.06252016 L18.0734375,8.06252016 L18.0734375,24.1875202 L21.2984375,24.1875202 L21.2984375,19.3500202 L25.8671875,19.3500202 L25.8671875,19.3500202 C28.98415,19.3500202 31.5109375,16.8232327 31.5109375,13.7062702 C31.5109375,10.5893077 28.98415,8.06252016 25.8671875,8.06252016" id="Fill-3" fill="#FFFFFF"></path>
                    <path d="M3.12295563,39.3269669 C3.12295563,38.8835294 2.78197906,38.6143762 2.33914625,38.6143762 L1.15187594,38.6143762 L1.15187594,40.031495 L2.33914625,40.031495 C2.78197906,40.031495 3.12295563,39.7623419 3.12295563,39.3269669 L3.12295563,39.3269669 Z M0.027761875,42.9999731 L0.027761875,37.6249731 L2.49710406,37.6249731 C3.64506969,37.6249731 4.27024938,38.40072 4.27024938,39.3269669 C4.27024938,40.2451512 3.63734313,41.0208981 2.49710406,41.0208981 L1.15187594,41.0208981 L1.15187594,42.9999731 L0.027761875,42.9999731 Z" id="Fill-5" fill="#FFFFFF"></path>
                    <path d="M4.95415766,43 L4.95415766,39.0813562 L5.95901391,39.0813562 L5.95901391,39.5960797 C6.23616234,39.2635016 6.70351859,38.9866219 7.17853422,38.9866219 L7.17853422,39.9679625 C7.10697953,39.9521734 7.01997172,39.9444469 6.90138578,39.9444469 C6.56880766,39.9444469 6.12530297,40.1342516 5.95901391,40.3798891 L5.95901391,43 L4.95415766,43 Z" id="Fill-7" fill="#FFFFFF"></path>
                    <path d="M10.5599131,40.9892931 C10.5599131,40.3956244 10.21121,39.8809681 9.57823656,39.8809681 C8.952385,39.8809681 8.60428656,40.3956244 8.60428656,40.9892931 C8.60428656,41.5910244 8.952385,42.1053447 9.57823656,42.1053447 C10.21121,42.1053447 10.5599131,41.5910244 10.5599131,40.9892931 M7.55945375,40.9892931 C7.55945375,39.9048197 8.31941156,38.9866353 9.57823656,38.9866353 C10.8447881,38.9866353 11.6047459,39.9048197 11.6047459,40.9892931 C11.6047459,42.0737666 10.8447881,43.0000134 9.57823656,43.0000134 C8.31941156,43.0000134 7.55945375,42.0737666 7.55945375,40.9892931" id="Fill-9" fill="#FFFFFF"></path>
                    <path d="M14.9874081,41.6699495 L14.9874081,40.3163902 C14.8211191,40.0630261 14.4569628,39.880948 14.1243175,39.880948 C13.5468409,39.880948 13.1510394,40.3321792 13.1510394,40.989273 C13.1510394,41.6541605 13.5468409,42.1053245 14.1243175,42.1053245 C14.4569628,42.1053245 14.8211191,41.9232464 14.9874081,41.6699495 L14.9874081,41.6699495 Z M14.9874081,42.9999933 L14.9874081,42.4141183 C14.6864081,42.7940636 14.2751534,42.9999933 13.8078644,42.9999933 C12.8500394,42.9999933 12.1139331,42.2716808 12.1139331,40.989273 C12.1139331,39.746573 12.8345862,38.9866152 13.8078644,38.9866152 C14.2590284,38.9866152 14.6864081,39.176487 14.9874081,39.5722214 L14.9874081,37.6249933 L16.0006628,37.6249933 L16.0006628,42.9999933 L14.9874081,42.9999933 Z" id="Fill-11" fill="#FFFFFF"></path>
                    <path d="M19.5811989,43 L19.5811989,42.4221203 C19.3201755,42.7070625 18.8612177,43 18.2359708,43 C17.3967989,43 17.0009973,42.5407734 17.0009973,41.7966047 L17.0009973,39.0813562 L18.0059208,39.0813562 L18.0059208,41.4008703 C18.0059208,41.9313156 18.2830692,42.1053312 18.7103817,42.1053312 C19.0983895,42.1053312 19.4071833,41.891675 19.5811989,41.6699562 L19.5811989,39.0813562 L20.586727,39.0813562 L20.586727,43 L19.5811989,43 Z" id="Fill-13" fill="#FFFFFF"></path>
                    <path d="M21.341498,40.9892931 C21.341498,39.8178119 22.1961902,38.9866353 23.3680073,38.9866353 C24.1518167,38.9866353 24.6268323,39.32694 24.8801292,39.6753744 L24.2226995,40.2924916 C24.0408902,40.0234056 23.7637417,39.8809681 23.4157105,39.8809681 C22.8059167,39.8809681 22.3786042,40.3244056 22.3786042,40.9892931 C22.3786042,41.6541806 22.8059167,42.1053447 23.4157105,42.1053447 C23.7637417,42.1053447 24.0408902,41.9471181 24.2226995,41.6857587 L24.8801292,42.3032119 C24.6268323,42.6516462 24.1518167,43.0000134 23.3680073,43.0000134 C22.1961902,43.0000134 21.341498,42.1688369 21.341498,40.9892931" id="Fill-15" fill="#FFFFFF"></path>
                    <path d="M25.7444964,41.9471114 L25.7444964,39.9602427 L25.111523,39.9602427 L25.111523,39.081363 L25.7444964,39.081363 L25.7444964,38.0365302 L26.7500245,38.0365302 L26.7500245,39.081363 L27.5254355,39.081363 L27.5254355,39.9602427 L26.7500245,39.9602427 L26.7500245,41.6780255 C26.7500245,41.9232598 26.876337,42.105338 27.0980558,42.105338 C27.248287,42.105338 27.3913292,42.0499083 27.4461542,41.986752 L27.6601464,42.7544364 C27.5099823,42.8891473 27.2404933,43.0000067 26.8209073,43.0000067 C26.1163792,43.0000067 25.7444964,42.6358505 25.7444964,41.9471114" id="Fill-17" fill="#FFFFFF"></path>
                    <polygon id="Fill-19" fill="#FFFFFF" points="33.9649139 43 33.9649139 40.6805531 31.4711155 40.6805531 31.4711155 43 30.3476061 43 30.3476061 37.625 31.4711155 37.625 31.4711155 39.6988766 33.9649139 39.6988766 33.9649139 37.625 35.0967545 37.625 35.0967545 43"></polygon>
                    <path d="M38.6940606,43 L38.6940606,42.4221203 C38.4330372,42.7070625 37.9740794,43 37.3488325,43 C36.5096606,43 36.1138591,42.5407734 36.1138591,41.7966047 L36.1138591,39.0813562 L37.1187825,39.0813562 L37.1187825,41.4008703 C37.1187825,41.9313156 37.3959309,42.1053312 37.8232434,42.1053312 C38.2113184,42.1053312 38.520045,41.891675 38.6940606,41.6699562 L38.6940606,39.0813562 L39.6995887,39.0813562 L39.6995887,43 L38.6940606,43 Z" id="Fill-21" fill="#FFFFFF"></path>
                    <path d="M43.2794731,43 L43.2794731,40.5935453 C43.2794731,40.0630328 43.0029294,39.8809547 42.574945,39.8809547 C42.1792106,39.8809547 41.8788153,40.1026734 41.704195,40.3243922 L41.704195,43 L40.6992716,43 L40.6992716,39.0813562 L41.704195,39.0813562 L41.704195,39.5722281 C41.9497653,39.2873531 42.4247809,38.9866219 43.0423013,38.9866219 C43.8891997,38.9866219 44.2927278,39.4613688 44.2927278,40.2054703 L44.2927278,43 L43.2794731,43 Z" id="Fill-23" fill="#FFFFFF"></path>
                    <path d="M45.4909631,41.9471114 L45.4909631,39.9602427 L44.8579897,39.9602427 L44.8579897,39.081363 L45.4909631,39.081363 L45.4909631,38.0365302 L46.4964913,38.0365302 L46.4964913,39.081363 L47.2719022,39.081363 L47.2719022,39.9602427 L46.4964913,39.9602427 L46.4964913,41.6780255 C46.4964913,41.9232598 46.6228038,42.105338 46.8445225,42.105338 C46.9947538,42.105338 47.1377959,42.0499083 47.1932256,41.986752 L47.4066131,42.7544364 C47.2564491,42.8891473 46.98696,43.0000067 46.5673741,43.0000067 C45.8628459,43.0000067 45.4909631,42.6358505 45.4909631,41.9471114" id="Fill-25" fill="#FFFFFF"></path>
                </g>
            </g>
        </g>
    </g>
</svg>