<?xml version="1.0" encoding="UTF-8"?>
<svg width="97px" height="44px" viewBox="0 0 97 44" version="1.1" xmlns="http://www.w3.org/2000/svg" xmlns:xlink="http://www.w3.org/1999/xlink">
    <title>zapier</title>
    <g id="Page-1" stroke="none" stroke-width="1" fill="none" fill-rule="evenodd">
        <g id="skillsets-collapsed" transform="translate(-853.000000, -7657.000000)" fill="#FF4A00" fill-rule="nonzero">
            <g id="Group-57" transform="translate(106.000000, 7272.500000)">
                <g id="Group-56" transform="translate(132.000000, 375.000000)">
                    <g id="zapier" transform="translate(615.000000, 9.500000)">
                        <path d="M57.648262,19.1351965 L55.2536245,19.1351965 C55.2044367,18.939214 55.167738,18.7119127 55.1433362,18.453869 C55.0945725,17.9516438 55.0945725,17.4458759 55.1433362,16.9436507 C55.167738,16.6861834 55.2044367,16.4590742 55.2536245,16.2619389 L61.2214847,16.2619389 L61.2214847,35.1594585 C60.9227219,35.2114113 60.6215039,35.2480936 60.3190044,35.2693624 C60.0185234,35.2924044 59.717308,35.3045811 59.4159476,35.305869 C59.1272665,35.3040304 58.8387439,35.2918537 58.5509345,35.2693624 C58.2485492,35.2479363 57.9474574,35.2110614 57.6488384,35.1588821 L57.6488384,19.1344279 L57.6488384,19.1348122 L57.648262,19.1351965 Z M78.4237555,23.8875808 C78.4237555,23.1997205 78.3315284,22.5429869 78.1478428,21.9162271 C77.9633886,21.2904279 77.6924716,20.7441747 77.3373974,20.2772751 C76.9805939,19.8111441 76.5265677,19.4362795 75.9739738,19.1540262 C75.4215721,18.8715808 74.7644541,18.7301659 74.0031965,18.7301659 C72.5052751,18.7301659 71.357048,19.1851528 70.5590917,20.0933974 C69.7609432,21.0018341 69.2761747,22.2664978 69.1040175,23.8875808 L78.4239476,23.8875808 L78.4237555,23.8875808 Z M69.0673188,26.6132751 C69.1165066,28.6760873 69.650655,30.18669 70.6697642,31.1439301 C71.6884891,32.1015546 73.1929432,32.5811354 75.1821659,32.5811354 C76.9252576,32.5811354 78.5830393,32.2737118 80.1547424,31.6598253 C80.3507249,32.0281572 80.5102009,32.4764192 80.6331703,33.0044192 C80.7538126,33.5184881 80.8277667,34.0424049 80.854131,34.5697817 C80.044262,34.9144803 79.15331,35.171179 78.1839651,35.3435284 C77.2132751,35.514917 76.1390218,35.6013799 74.9610131,35.6013799 C73.2413624,35.6013799 71.7676507,35.3612052 70.5404541,34.8827773 C69.3122969,34.4033886 68.2993362,33.7280175 67.5011878,32.8566638 C66.7032314,31.9851179 66.1197031,30.9535197 65.7513712,29.7622533 C65.3832314,28.5715633 65.1985852,27.2636681 65.1985852,25.8393362 C65.1985852,24.4395983 65.3765066,23.1317031 65.7327336,21.9158428 C66.0881921,20.7009432 66.6357904,19.6447511 67.3716856,18.7484192 C68.1087336,17.8517031 69.0356157,17.1398253 70.1531004,16.6118253 C71.2700087,16.0838253 72.5898166,15.819441 74.1131004,15.819441 C75.4144629,15.819441 76.5563493,16.040786 77.538952,16.4827074 C78.520786,16.9246288 79.3437205,17.532559 80.0069869,18.3061135 C80.669869,19.0798603 81.1732751,20.000786 81.5172052,21.0685066 C81.8607511,22.1371878 82.0332926,23.2973275 82.0332926,24.5500786 C82.0332926,24.8940087 82.0202271,25.256 81.9958253,25.6364367 C81.975662,25.9621025 81.951194,26.2874876 81.9224279,26.6125066 L69.0665502,26.6125066 L69.0669345,26.613083 L69.0673188,26.6132751 Z M86.0505502,16.2619389 C86.3069132,16.2154004 86.5649505,16.1786112 86.8241048,16.1516507 C87.069083,16.1276332 87.3275109,16.1151441 87.5976594,16.1151441 C87.8678079,16.1151441 88.1375721,16.1276332 88.4081048,16.1516507 C88.6780611,16.1766288 88.9238079,16.2135197 89.1449607,16.2619389 C89.2179738,16.6304629 89.2917555,17.116 89.3651528,17.7170131 C89.4387424,18.3187948 89.4762096,18.8279651 89.4762096,19.2456769 C89.9917205,18.4110218 90.6732402,17.6860786 91.5201921,17.072 C92.3675284,16.4584978 93.4540786,16.1510742 94.7800349,16.1510742 C94.9764017,16.1510742 95.178917,16.157607 95.3877729,16.1699039 C95.5664629,16.1795109 95.7451528,16.1975721 95.9219214,16.2246638 C95.9707249,16.4460087 96.0083843,16.6796507 96.0325939,16.924821 C96.0568035,17.1701834 96.0691004,17.4282271 96.0691004,17.6981834 C96.0691004,17.9931179 96.0508472,18.3003493 96.0141485,18.618917 C95.978722,18.9268283 95.935798,19.2338306 95.8854148,19.5396507 C95.6864223,19.4906567 95.4822278,19.4659469 95.2772926,19.4660611 L94.7796507,19.4660611 C94.1167686,19.4660611 93.4842445,19.5582882 92.882655,19.7421659 C92.2804891,19.9266201 91.7405764,20.2521048 91.2617642,20.7182358 C90.7833362,21.1851354 90.4023231,21.8238079 90.1204541,22.6342533 C89.8374323,23.4446987 89.6965939,24.4884017 89.6965939,25.7651703 L89.6965939,35.1588821 C89.3978166,35.2107598 89.0965415,35.2478428 88.7939214,35.2691703 C88.4628646,35.2937642 88.1617817,35.3056769 87.8918253,35.3056769 C87.5905909,35.304481 87.2895001,35.292304 86.9891528,35.2691703 C86.6745001,35.2462883 86.3610084,35.209554 86.0495895,35.1590742 L86.0495895,16.262131 L86.0505502,16.2619389 Z M60.1973799,6.17152838 C60.1974164,6.61243298 60.1178093,7.04971845 59.962393,7.46232314 C59.5496503,7.61774461 59.1122496,7.69741402 58.671214,7.69750221 L58.6658341,7.69750221 C58.2248026,7.69755963 57.7873873,7.61795266 57.374655,7.46251528 C57.2189844,7.04983554 57.1392437,6.61240076 57.1392838,6.17133624 L57.1392838,6.16557205 C57.1392838,5.71116157 57.2226725,5.27596507 57.3736943,4.87439301 C57.7864999,4.71873834 58.2240811,4.63912486 58.6652576,4.63940537 L58.6702533,4.63940537 C59.1248559,4.63940537 59.5598603,4.72279476 59.9614323,4.87439301 C60.1170209,5.28708346 60.1966329,5.72452652 60.1964192,6.16557205 L60.1964192,6.17133624 L60.1969956,6.17133624 L60.1973799,6.17152838 Z M64.6984454,5.14934498 L61.1292576,5.14934498 L63.652821,2.62558952 C63.255989,2.06828428 62.7687997,1.58122481 62.2113886,1.18454148 L59.687441,3.70829694 L59.687441,0.138917031 C59.3518326,0.0824636818 59.0121137,0.0539931087 58.6717904,0.0537991266 L58.6652576,0.0537991266 C58.3190218,0.0537991266 57.9798952,0.0833886463 57.6494148,0.138917031 L57.6494148,3.70829694 L55.1248908,1.18434934 C54.8468709,1.38222889 54.5859281,1.60306616 54.3448035,1.84454148 L54.3436507,1.84569432 C54.1025362,2.08699054 53.8819041,2.34791867 53.6840349,2.62578166 L56.208559,5.14934498 L52.6386026,5.14934498 C52.6386026,5.14934498 52.5536769,5.81991266 52.5536769,6.16653275 L52.5536769,6.17075983 C52.5536769,6.51737991 52.5830742,6.85708297 52.6387948,7.18775546 L56.2087511,7.18775546 L53.6838428,9.71112664 C54.0809636,10.2683611 54.5681799,10.7555124 55.1254672,11.152559 L57.649607,8.62899563 L57.649607,12.1985677 C57.9797031,12.2539039 58.3182533,12.2831092 58.6641048,12.2834934 L58.6727511,12.2834934 C59.0126792,12.2831812 59.352,12.2547759 59.6872489,12.1985677 L59.6872489,8.62899563 L62.2115808,11.1531354 C62.4896398,10.9550753 62.7507596,10.7342514 62.9922445,10.4929432 L62.992821,10.4929432 C63.2338222,10.2513899 63.4543853,9.99027463 63.6522445,9.71227948 L61.1286812,7.1879476 L64.6986376,7.1879476 C64.7539738,6.85746725 64.783179,6.51891703 64.783179,6.1730655 L64.783179,6.16422707 C64.783179,5.82413974 64.7547424,5.4850131 64.6986376,5.14972926 L64.6986376,5.14934498 L64.6984454,5.14934498 Z M0,34.6439476 L9.9459214,19.1720873 L1.17858515,19.1720873 C1.10518777,18.7301659 1.06848908,18.239441 1.06848908,17.698952 C1.06848908,17.183441 1.10576419,16.7040524 1.17935371,16.2617467 L15.3611878,16.2617467 L15.5456419,16.7415197 L5.526131,32.2495022 L14.9190742,32.2495022 C14.9926638,32.7408035 15.0297467,33.2438253 15.0297467,33.7593362 C15.0297467,34.251214 14.9928559,34.7175371 14.9192664,35.1594585 L0.184454148,35.1594585 L0,34.6433712 L0,34.6439476 Z M28.6953013,26.2814498 C28.3269694,26.2328384 27.860262,26.1842271 27.2955633,26.1344629 C26.7306725,26.0858515 26.2518603,26.0608734 25.8595109,26.0608734 C24.3366114,26.0608734 23.1762795,26.3433188 22.3787074,26.9082096 C21.5799825,27.4734847 21.1816769,28.3325415 21.1816769,29.4867249 C21.1816769,30.2233886 21.3161747,30.8005764 21.5865153,31.2179039 C21.8562795,31.636 22.1942533,31.9545677 22.599476,32.1757205 C23.0048908,32.3966812 23.4525764,32.5319476 23.9434934,32.5811354 C24.4344105,32.630131 24.90131,32.6545328 25.3432314,32.6545328 C25.9081223,32.6545328 26.4912664,32.6237904 27.093048,32.5623057 C27.6944454,32.5013974 28.2285939,32.4089782 28.6954934,32.2862009 L28.6954934,26.2814498 L28.6953013,26.2814498 Z M28.6953013,22.7088035 C28.6953013,21.2593013 28.3269694,20.2524891 27.5904978,19.6875983 C26.8534498,19.1227074 25.785345,18.840262 24.385607,18.840262 C23.5253974,18.840262 22.7216769,18.9082795 21.9729083,19.0431616 C21.2319405,19.1761494 20.4998017,19.3543395 19.7805939,19.5767336 C19.3136943,18.7662882 19.0812052,17.7969432 19.0812052,16.6665852 C19.9150917,16.396821 20.8358253,16.1881572 21.843214,16.040786 C22.8500262,15.8932227 23.8199476,15.819441 24.7535546,15.819441 C27.2091004,15.819441 29.0753537,16.3785677 30.3525066,17.4958603 C31.629083,18.6141135 32.2681397,20.4004367 32.2681397,22.8557904 L32.2681397,34.6804541 C31.4081223,34.876821 30.3648035,35.0793362 29.1370306,35.2881921 C27.8956045,35.4978167 26.6387375,35.6025824 25.379738,35.6013901 C24.176559,35.6013901 23.0894323,35.4912838 22.1198952,35.270131 C21.1495895,35.0485939 20.3268472,34.6933275 19.6516681,34.2014498 C18.9757205,33.7107249 18.4546376,33.0843493 18.0857293,32.3232838 C17.7175895,31.5618341 17.5333275,30.6411004 17.5333275,29.5603144 C17.5333275,28.5046987 17.7481397,27.5774323 18.1779563,26.7788996 C18.6002973,25.9899431 19.199208,25.3092313 19.9279651,24.789869 C20.6646288,24.2626376 21.5117729,23.8691354 22.4695895,23.6116681 C23.4275983,23.3536245 24.4340262,23.2245066 25.4900262,23.2245066 C26.2758777,23.2245066 26.9205066,23.2433362 27.4241048,23.2802271 C27.9271266,23.3167336 28.3509869,23.3597729 28.694917,23.4089607 L28.694917,22.7089956 L28.6953013,22.7088035 Z M39.8932052,32.0644716 C40.3582407,32.23626 40.8397156,32.3597514 41.3300262,32.4329956 C41.8211354,32.5069694 42.4590393,32.5436681 43.2456594,32.5436681 C44.1295022,32.5436681 44.9395633,32.4028297 45.6762271,32.1203843 C46.4132751,31.8385153 47.0454148,31.4021659 47.5734148,30.8124891 C48.1014148,30.2233886 48.5187424,29.4809607 48.8257817,28.5836681 C49.1326288,27.6879127 49.2865328,26.6261485 49.2865328,25.397607 C49.2865328,23.4331703 48.9237729,21.8737642 48.1997904,20.7193886 C47.4748472,19.5653974 46.2899214,18.9882096 44.6452052,18.9882096 C44.0313188,18.9882096 43.4414498,19.0984978 42.8775197,19.3198428 C42.3118603,19.5408035 41.8088384,19.8724367 41.3667249,20.3143581 C40.9248035,20.7562795 40.5687686,21.3154061 40.2988122,21.9905852 C40.0278952,22.6665328 39.8933974,23.4700611 39.8933974,24.403476 L39.8933974,32.065048 L39.8933974,32.0646638 L39.8932052,32.0644716 Z M36.246393,16.2615546 C36.4961747,16.2123668 36.7478777,16.1756681 37.0015022,16.1512664 C37.2648627,16.1268981 37.5292088,16.1147163 37.7936943,16.1147598 C38.0384803,16.1147598 38.2961397,16.127441 38.5668646,16.1512664 C38.8366288,16.1762445 39.0944803,16.2133275 39.3404192,16.2617467 C39.3646288,16.3117031 39.3957555,16.4644541 39.4326463,16.7224978 C39.4691528,16.9805415 39.5060437,17.2566463 39.5431266,17.5510044 C39.5800175,17.8459389 39.6167162,18.1289607 39.653607,18.3983406 C39.6904978,18.6688734 39.7089432,18.8408384 39.7089432,18.9144279 C39.9539214,18.5218865 40.2488559,18.1408734 40.592786,17.7725415 C40.9367162,17.4040175 41.3484716,17.0725764 41.8272838,16.7782183 C42.3060961,16.4832838 42.8460087,16.2502183 43.4479825,16.0780611 C44.0493799,15.9062882 44.7186026,15.8196332 45.4554585,15.8196332 C46.560262,15.8196332 47.5857118,16.0040873 48.5316157,16.3726114 C49.476559,16.7415197 50.2864279,17.3115983 50.9621834,18.085345 C51.6371703,18.8590917 52.1649782,19.8415022 52.5459913,21.0321921 C52.9264279,22.2242271 53.1166463,23.6299214 53.1166463,25.2504279 C53.1166463,28.4918253 52.2385677,31.0280699 50.4824105,32.8572402 C48.7262533,34.6869869 46.2405415,35.6013799 43.0235459,35.6013799 C42.4830568,35.6013799 41.9308472,35.5644891 41.3659563,35.4908996 C40.8006812,35.4169258 40.3099563,35.3185502 39.8922445,35.1963493 L39.8922445,43.8530131 C39.5810925,43.9036461 39.2678556,43.9405088 38.9534498,43.9634934 C38.6216245,43.9875109 38.3205415,44 38.050393,44 C37.7492887,43.9987037 37.4483296,43.9865269 37.1481048,43.9634934 C36.8456562,43.9420639 36.5445005,43.905189 36.2458166,43.8530131 L36.2458166,16.2617467 L36.246393,16.2615546 Z" id="Shape"></path>
                    </g>
                </g>
            </g>
        </g>
    </g>
</svg>